<svg xmlns="http://www.w3.org/2000/svg" xmlns:xlink="http://www.w3.org/1999/xlink" id="Layer_1" x="0px" y="0px" viewBox="0 0 200 100" style="enable-background:new 0 0 200 100;" xml:space="preserve">
<style type="text/css">
	.st0{fill-rule:evenodd;clip-rule:evenodd;fill:#FFFFFF;}
	.st1{fill-rule:evenodd;clip-rule:evenodd;fill:#FFFFFF;stroke:#FFFFFF;stroke-width:0.216;stroke-miterlimit:2.6131;}
</style>
<g>
	<path class="st0" d="M7.8,95.9c3.6-2.1,9.6-28,14.3-42l7.8-0.3c4.8,14.3,11.5,41,15.3,42.5H28.8c0.1-0.8,5-0.5,1.6-10.1H18.9   c-3.6,9.7-0.1,9.1-0.1,9.9H7.8L7.8,95.9z M24.4,66.9l-3.9,13.2l7.8,0L24.4,66.9L24.4,66.9z"></path>
	<path class="st1" d="M44.2,96c2.6-2,2.6-11.6,4.8-33.5l-1.7-3.7h10.9l6.7,18.9l6.4-19h11.1c-0.5,0.4-1.1,1.1-1.1,2.3   c0.2,7.6,1.6,31.9,4.8,35.1H73.4c2.3-4.2,0-17.1-0.6-25.6L64.6,96H62l-8.2-25.6c-1.1,8.5-3.2,23.4-1,25.6H44.2L44.2,96z"></path>
	<path class="st1" d="M108.6,59.7c0,2.3,0,4.6,0,7c-3.4-1.8-6.9-6.1-11.2-2.3c-1.1,1.8-2,4,0.1,6c3.5,2.5,7.8,2.9,11.2,6.1   c2.7,4,3.8,10.3,0,15.5c-2.1,2.2-5.8,7.9-20.4,2.8c-0.7-3.1-1.1-6.2-1.4-9.2c3.6,2.1,5.3,5.9,11.9,5.4c1.9-0.4,6.6-3.3,0.6-8   c-2.7-2.5-9.1-2.1-11.9-10.8C84.7,58.8,99.9,55,108.6,59.7L108.6,59.7z"></path>
	<path class="st1" d="M112.1,58.3c-0.6,2.7-1.2,5.4-1.8,8.1c1.9-0.9,4.9-4,8.2-2v27.1c-0.3,1.3-1,2.6-2.1,3.8h12.5   c-0.8-1.3-1.2-2.7-1.4-4V63.8c5.7-0.4,5.7,1.4,7.2,2.1l2-7.7L112.1,58.3L112.1,58.3z"></path>
	<path class="st1" d="M138.1,58.3l21.7,0c0.4,2,0.7,4.3,0.7,6.4c-2.4-1.7-7.7-0.9-11.5-1.3l0,9.8c2.6-0.2,6.2,1.2,8.5-1.4v8.7   c-0.7-1.3-1.8-2.3-8.5-1.7v11.5c5.5-0.8,8.3,1.6,13.5-3.4l-2,8.5l-22.1-0.1c0.7-1.3,1-2.6,1.4-3.8C140,80.3,141.1,60.1,138.1,58.3   L138.1,58.3z"></path>
	<path class="st1" d="M164.1,58c3.5,1.4,2,22.1,2,33.1l-1.8,4.2h21.8c0.6-2.8,1.1-5.9,1.7-8.7c-1.7,1.2-3.1,2.3-5.1,3.1h-7.4   c0.3-10.5-1.6-28.9,1.7-31.8H164.1L164.1,58z"></path>
	<path class="st0" d="M184.4,60.6c0,0.7-0.3,1.3-0.8,1.9c-0.5,0.5-1.1,0.8-1.9,0.8c-0.7,0-1.4-0.3-1.9-0.8c-0.5-0.5-0.8-1.1-0.8-1.9   c0-0.7,0.3-1.3,0.8-1.9c0.5-0.5,1.1-0.8,1.9-0.8c0.7,0,1.4,0.3,1.9,0.8C184.1,59.2,184.4,59.9,184.4,60.6L184.4,60.6z M184,60.6   c0-0.6-0.2-1.2-0.7-1.6c-0.4-0.4-1-0.7-1.6-0.7c-0.6,0-1.2,0.2-1.6,0.7c-0.4,0.4-0.7,1-0.7,1.6c0,0.6,0.2,1.2,0.7,1.6   c0.5,0.4,1,0.7,1.6,0.7c0.6,0,1.2-0.2,1.6-0.7C183.8,61.7,184,61.2,184,60.6L184,60.6z M180.7,59h1.1c0.4,0,0.7,0.1,0.8,0.2   c0.2,0.2,0.3,0.3,0.3,0.6c0,0.2-0.1,0.5-0.3,0.6c-0.1,0.1-0.3,0.2-0.6,0.2c0.1,0,0.2,0.1,0.2,0.1c0,0,0.1,0.1,0.2,0.3   c0.1,0.1,0.2,0.2,0.2,0.3l0.3,0.5h-0.4l-0.3-0.4c-0.2-0.4-0.4-0.6-0.5-0.6c-0.1-0.1-0.3-0.1-0.6-0.1h-0.2v1.2h-0.4V59l0.4,0.3v1.1   h0.4c0.4,0,0.7,0,0.8-0.1c0.1,0,0.2-0.1,0.2-0.2c0.1-0.1,0.1-0.2,0.1-0.3c0-0.1-0.1-0.3-0.2-0.4c-0.1-0.1-0.4-0.2-0.8-0.2h-0.5   L180.7,59L180.7,59z"></path>
</g>
</svg>