<svg xmlns="http://www.w3.org/2000/svg" xmlns:xlink="http://www.w3.org/1999/xlink" id="Layer_1" x="0px" y="0px" viewBox="0 0 200 100" style="enable-background:new 0 0 200 100;" xml:space="preserve">
<style type="text/css">
	.st0{fill:#FFFFFF;}
</style>
<g>
	<path class="st0" d="M30.74,68.03v0.48c0.59,0.04,0.69,0.35,0.53,0.9l-4.69,15.36c-0.1,0.28-0.41,0.82-0.86,0.86v0.48h4.41   l1.08-3.82h6.48l0.62,2.22c0.05,0.19,0.1,0.36,0.1,0.47c0,0.31-0.17,0.62-0.76,0.65v0.48h5.31l-5.52-18.09H30.74z M32.07,79.25   l2.39-8.43l2.37,8.43H32.07z M22,76.14c1.14-0.66,1.98-1.76,1.98-3.59c0-4.02-4.03-4.52-6.43-4.52H10.5v0.48   c0.79,0.1,0.97,0.31,0.97,0.89v15.34c0,0.58-0.17,0.79-0.97,0.89v0.48h7.72c2.4,0,6.43-0.59,6.43-5.34   C24.65,78.19,23.47,76.84,22,76.14z M15.67,70.37h1.7c0.94,0,2.92,0.3,2.92,2.7c0,2.4-1.98,2.7-2.92,2.7h-1.7V70.37z M18.05,83.77   h-2.38v-5.74h2.38c0.94,0,2.92,0.32,2.92,2.87C20.97,83.45,18.99,83.77,18.05,83.77z M93.36,86.12h-4.26L82.64,74.5l0,11.61h-4.4   l0.01-0.48c0.74-0.1,0.94-0.28,0.96-0.78l0-15.46c0-0.57-0.18-0.78-0.97-0.88v-0.48h5.45L89.89,79v-9.73   c-0.03-0.48-0.2-0.66-0.93-0.76v-0.48h4.39V86.12z M75.54,82.28v0.55v3.29H62.61v-0.48c0.69-0.09,0.91-0.26,0.96-0.68l0.01-15.58   c-0.01-0.55-0.19-0.75-0.97-0.85v-0.48h12.25v3.3v0.55h-0.49c-0.1-0.45-0.38-0.55-1.17-0.55l0,0l-5.45,0v4.22h5.77v3.04h-5.77v4.24   l6.13,0l0,0c0.79,0,1.07-0.1,1.17-0.55H75.54z M52.3,68.03l-7.39,0v0.48c0.79,0.1,0.97,0.31,0.97,0.89v15.34   c0,0.58-0.17,0.79-0.97,0.89v0.48h7.39c2.4,0,7.64-0.56,7.64-9.04C59.94,68.59,54.7,68.03,52.3,68.03z M52.36,83.49h-2.28V70.65   h2.28c0.93,0,3.37,0.4,3.37,6.42C55.74,83.09,53.29,83.49,52.36,83.49z M127.73,68.03v0.48c0.59,0.04,0.69,0.35,0.53,0.9   l-4.69,15.36c-0.1,0.28-0.41,0.82-0.86,0.86v0.48h4.41l1.08-3.82h6.48l0.62,2.22c0.05,0.19,0.1,0.36,0.1,0.47   c0,0.31-0.17,0.62-0.76,0.65v0.48h5.31l-5.52-18.09H127.73z M129.06,79.25l2.39-8.43l2.37,8.43H129.06z M118.99,76.14   c1.14-0.66,1.98-1.76,1.98-3.59c0-4.02-4.03-4.52-6.43-4.52h-7.05v0.48c0.79,0.1,0.97,0.31,0.97,0.89v15.34   c0,0.58-0.17,0.79-0.97,0.89v0.48h7.72c2.4,0,6.43-0.59,6.43-5.34C121.65,78.19,120.46,76.84,118.99,76.14z M112.66,70.37h1.7   c0.94,0,2.92,0.3,2.92,2.7c0,2.4-1.98,2.7-2.92,2.7h-1.7V70.37z M115.04,83.77h-2.38v-5.74h2.38c0.94,0,2.92,0.32,2.92,2.87   C117.97,83.45,115.98,83.77,115.04,83.77z M190.35,86.12h-4.26l-6.45-11.61l0,11.61h-4.4l0.01-0.48c0.74-0.1,0.94-0.28,0.96-0.78   l0-15.46c0-0.57-0.18-0.78-0.97-0.88v-0.48h5.45l6.2,10.97v-9.73c-0.03-0.48-0.2-0.66-0.93-0.76v-0.48h4.39V86.12z M172.53,82.28   v0.55v3.29H159.6v-0.48c0.69-0.09,0.91-0.26,0.96-0.68l0.01-15.58c-0.01-0.55-0.19-0.75-0.97-0.85v-0.48h12.25v3.3v0.55h-0.49   c-0.1-0.45-0.38-0.55-1.17-0.55l0,0l-5.45,0v4.22h5.77v3.04h-5.77v4.24l6.13,0l0,0c0.79,0,1.07-0.1,1.17-0.55H172.53z    M149.29,68.03l-7.39,0v0.48c0.79,0.1,0.97,0.31,0.97,0.89v15.34c0,0.58-0.17,0.79-0.97,0.89v0.48h7.39c2.4,0,7.64-0.56,7.64-9.04   C156.93,68.59,151.69,68.03,149.29,68.03z M149.36,83.49h-2.28V70.65h2.28c0.93,0,3.37,0.4,3.37,6.42   C152.73,83.09,150.29,83.49,149.36,83.49z M12.59,96.86c-1.31,0-1.97-0.58-1.97-1.72c0-1.1,0.66-1.66,1.95-1.66   c0.33,0,0.69,0.06,1.07,0.19l0.23-0.21v1.08c-0.42-0.24-0.85-0.36-1.29-0.36c-0.63,0-0.93,0.33-0.93,1c0,0.66,0.31,0.98,0.93,0.98   c0.59,0,1.02-0.08,1.3-0.23v0.63C13.52,96.76,13.09,96.86,12.59,96.86z M56.29,96.86c-0.17,0-0.33-0.02-0.49-0.05v-0.8   c0.12,0.09,0.29,0.14,0.49,0.14c0.45,0,0.68-0.2,0.68-0.58v-1.79l-0.21-0.26h1.38l-0.2,0.25l-0.01,1.79   C57.92,96.42,57.37,96.86,56.29,96.86z M75.25,96.81l0.2-0.25l-0.68-1.01l-0.39,0v1.03l0.19,0.23h-1.33l0.19-0.23l0-2.87l-0.2-0.2   h2.06c0.83,0,1.26,0.34,1.26,1c0,0.52-0.24,0.85-0.7,0.98l-0.05,0.01l0.89,1.3H75.25z M74.4,95.01h0.67c0.34,0,0.51-0.14,0.51-0.42   c0-0.26-0.18-0.4-0.52-0.4H74.4V95.01z M30.56,96.81l0.2-0.25l-0.68-1.01l-0.37,0v1.02l0.2,0.24h-1.35l0.19-0.24v-2.85l-0.19-0.21   h2.06c0.83,0,1.26,0.34,1.26,1c0,0.52-0.24,0.85-0.7,0.98l-0.05,0.01l0.89,1.3H30.56z M29.72,95.01h0.67   c0.34,0,0.51-0.14,0.51-0.42c0-0.26-0.18-0.4-0.52-0.4h-0.65V95.01z M82.43,96.81l0.21-0.26l0-2.79l-0.21-0.24h1.38l-0.19,0.23v2.8   l0.2,0.26H82.43z M46.96,96.81l0.21-0.25l0-2.79l-0.21-0.26h3.1v0.88l-0.25-0.2l-1.68,0v0.64h1.08l0.23-0.2v1.05l-0.24-0.21   l-1.07,0v0.65h1.69l0.25-0.2v0.88H46.96z M19.7,96.81l0.2-0.25l0-2.8l-0.21-0.24h3.1v0.88l-0.25-0.2l-1.68,0v0.64h1.08l0.24-0.2   v1.05l-0.25-0.21l-1.07,0v0.65h1.67l0.26-0.2v0.88H19.7z M66.17,96.81l0.21-0.27L66.2,96.2l-1.6,0l-0.16,0.38l0.2,0.23h-1.18   l1.47-3.06l-0.12-0.23h1.08l1.64,3.3H66.17z M64.86,95.62h1.1l-0.54-1.18L64.86,95.62z M39.05,96.78l-1.57-3.26h1.35l-0.2,0.26   l0.8,1.78l0.82-1.77l-0.21-0.27h1.16l-1.52,3.26H39.05z M92.15,96.81l0.21-0.27l-0.17-0.34l-1.6,0l-0.16,0.38l0.2,0.23h-1.18   l1.47-3.06l-0.12-0.23h1.08l1.64,3.3H92.15z M90.84,95.62h1.1l-0.54-1.18L90.84,95.62z M110.82,96.81l0.21-0.27l-0.17-0.34l-1.6,0   l-0.16,0.38l0.2,0.23h-1.18l1.47-3.06l-0.12-0.23h1.08l1.64,3.3H110.82z M109.51,95.62h1.1l-0.54-1.18L109.51,95.62z M159.41,96.81   l0.21-0.27l-0.17-0.34l-1.6,0l-0.16,0.38l0.2,0.23h-1.18l1.47-3.06l-0.12-0.23h1.08l1.64,3.3H159.41z M158.11,95.62h1.1l-0.54-1.18   L158.11,95.62z M179.74,96.81l0.21-0.27l-0.17-0.34l-1.6,0l-0.16,0.38l0.2,0.23h-1.18l1.47-3.06l-0.12-0.23h1.08l1.64,3.3H179.74z    M178.43,95.62h1.1l-0.54-1.18L178.43,95.62z M141.12,96.81v-0.88l-0.25,0.2h-1.69v-0.65l1.07,0l0.24,0.21v-1.05l-0.23,0.2h-1.08   V94.2l1.68,0l0.25,0.2v-0.88h-3.1l0.21,0.26l0,2.79l-0.21,0.25H141.12z M120.52,96.81l0.2-0.25l-0.68-1.01l-0.37,0v1.02l0.2,0.24   h-1.35l0.19-0.24v-2.85l-0.19-0.21h2.06c0.83,0,1.26,0.34,1.26,1c0,0.52-0.24,0.85-0.7,0.98l-0.05,0.01l0.89,1.3H120.52z    M119.68,95.01h0.67c0.34,0,0.51-0.14,0.51-0.42c0-0.26-0.18-0.4-0.52-0.4h-0.65V95.01z M130.61,96.81l-0.21-0.26V94.3l0.93,0   l0.23,0.19v-0.98h-3.29v0.98l0.24-0.19h0.91l-0.01,2.27l-0.2,0.24H130.61z M147.65,96.85l0.23-0.28c0.49,0.18,0.95,0.28,1.31,0.28   c0.91,0,1.37-0.34,1.37-1.01c0-0.43-0.33-0.76-0.97-0.99c-0.13-0.04-0.25-0.08-0.37-0.12c-0.13-0.04-0.26-0.09-0.39-0.17   c-0.07-0.04-0.19-0.1-0.19-0.21c0-0.07,0.05-0.13,0.13-0.16c0.08-0.03,0.17-0.04,0.25-0.04c0.39,0,0.86,0.12,1.39,0.35v-1.04   l-0.23,0.23c-0.43-0.15-0.81-0.23-1.08-0.23c-0.36,0-0.66,0.06-0.91,0.17c-0.35,0.18-0.53,0.43-0.53,0.75   c0,0.24,0.08,0.46,0.23,0.64c0.2,0.19,0.51,0.36,0.93,0.49c0.5,0.15,0.75,0.29,0.75,0.43c0,0.15-0.13,0.22-0.39,0.22   c-0.48,0-0.98-0.16-1.5-0.48V96.85z M170.62,96.81l0-3.04l0.21-0.25h-1.17l0.21,0.27v1.64l-1.71-1.91h-1.01l0.19,0.26l0,2.78   l-0.19,0.24h1.15l-0.2-0.27v-1.68l1.76,1.95H170.62z M190.5,96.81v-0.88l-0.28,0.2h-1.56l0.01-2.37l0.19-0.25h-1.35l0.2,0.27   l0,2.78l-0.2,0.25H190.5z"></path>
	<g>
		<path class="st0" d="M100.5,60.82c6.85-2.85,7.32-2.11,12.77-4.95c5.45-2.84,10.49-10.14,10.26-19.2c0,0,0.16-25.97,0.16-26.83    c0.01-0.86,0.06-1.12,0.21-1.12s0.2,0.27,0.23,1.12c0.03,0.85,0.79,27.97,0.79,27.97c0.25,9.61-5.1,17.18-10.88,20.19    s-6.27,2.41-13.54,5.42c-7.27-3.02-7.76-2.41-13.54-5.42S75.84,47.42,76.09,37.81c0,0,0.76-27.12,0.79-27.97    c0.03-0.85,0.09-1.12,0.23-1.12s0.2,0.26,0.21,1.12c0.01,0.86,0.16,26.83,0.16,26.83c-0.24,9.06,4.81,16.36,10.26,19.2    C93.18,58.71,93.65,57.98,100.5,60.82z M106.82,53.61l-0.09,0.55c0,0.01-0.02,0.03-0.03,0.02c-2.07-0.16-4.13-0.3-6.19-0.28    c-2.06-0.02-4.12,0.13-6.19,0.3c-0.02,0-0.03-0.01-0.03-0.02l-0.09-0.56c-0.01-0.07,0.04-0.15,0.11-0.16    c2.03-0.46,4.11-0.63,6.2-0.65c2.08,0.02,4.17,0.18,6.2,0.64C106.78,53.46,106.83,53.53,106.82,53.61z M100.51,50.69    c-2.99,0-7.91,0.59-9.92,0.94c-0.02,0-0.03-0.01-0.03-0.02l-0.13-0.55c-0.02-0.08,0.03-0.15,0.11-0.17    c2.45-0.66,7.02-1.28,9.98-1.28s7.53,0.62,9.98,1.28c0.08,0.02,0.13,0.1,0.11,0.17l-0.13,0.55c0,0.01-0.02,0.02-0.03,0.02    C108.41,51.28,103.49,50.69,100.51,50.69L100.51,50.69z M118.31,20.12v-0.64h-9.38c-2.94,0-7.68,0.57-8.45,4.8    c-0.76-4.23-5.51-4.8-8.45-4.8h-9.38v0.64c1.05,0.14,1.29,0.41,1.29,1.19v20.42c0,0.78-0.23,1.05-1.29,1.19v0.64h10.28    c2.34,0,5.84-0.43,7.55-3.14c1.71,2.71,5.2,3.14,7.55,3.14h10.28v-0.64c-1.05-0.14-1.29-0.41-1.29-1.19V21.31    C117.02,20.54,117.26,20.26,118.31,20.12z M89.54,22.61h2.27c1.25,0,3.89,0.4,3.89,3.6s-2.64,3.6-3.89,3.6h-2.27V22.61z     M92.7,40.44h-3.17v-7.65h3.17c1.25,0,3.89,0.42,3.89,3.82S93.95,40.44,92.7,40.44z M100.48,34.92c-0.53-1.51-1.73-3.01-3.83-3.93    c1.78-0.78,2.91-1.99,3.54-3.26c0.12-0.31,0.22-0.64,0.29-1.01c0.07,0.36,0.17,0.7,0.29,1.01c0.62,1.27,1.76,2.48,3.54,3.26    C102.21,31.91,101.01,33.41,100.48,34.92z M111.42,40.44h-3.17c-1.25,0-3.89-0.42-3.89-3.82s2.64-3.82,3.89-3.82h3.17V40.44z     M111.42,29.8h-2.27c-1.25,0-3.89-0.4-3.89-3.6s2.64-3.6,3.89-3.6h2.27V29.8z M95.74,6.82c0.41-0.21,0.7-0.67,0.7-1.2    c0-0.17-0.03-0.33-0.09-0.48h0.94c0,0.03,0,0.06,0,0.09c0,0.93,0.69,1.69,1.54,1.69h0.87c0.07,0.08,0.15,0.23,0.19,0.49    c-0.06,0.03-0.13,0.06-0.2,0.1C98.5,7.47,97.08,7.26,95.74,6.82z M99.94,12.07c-0.76-0.01-1.5-0.06-2.21-0.15    c-0.04-0.41-0.4-0.78-0.76-1.13c-0.33-0.32-0.66-0.34-0.74-0.34c-0.08,0-0.4,0.01-0.74,0.34c-0.2,0.2-0.4,0.39-0.54,0.6    c-0.19-0.05-1.74-0.45-3.37-1.34c0.04-0.1,0.07-0.21,0.07-0.33c0-0.45-0.38-0.83-0.77-1.21c-0.33-0.32-0.66-0.34-0.74-0.34    c-0.08,0-0.4,0.01-0.74,0.34c-0.01,0.01-0.03,0.03-0.04,0.04c-0.51-0.43-0.91-0.84-1.19-1.16h1.46c0.31,0,0.6-0.14,0.81-0.36    c0.17,0.14,1.28,0.95,1.69,1.18c-0.15,0.21-0.25,0.42-0.25,0.65c0,0.44,0.32,0.79,0.72,0.79h1.56c0.22,0,0.43-0.11,0.56-0.29    c1.01,0.33,2.09,0.57,3.23,0.7c0.07,0.67,0.59,1.19,1.22,1.19h0.01h0.58c0.12,0.2,0.19,0.43,0.19,0.69    C99.95,11.99,99.95,12.03,99.94,12.07z M100.51,1.91c-0.22,0-0.89,0.05-1.58,0.72c-0.31,0.3-0.61,0.6-0.87,0.9    c-0.13-0.16-0.28-0.31-0.43-0.46c-0.34-0.33-0.68-0.35-0.76-0.35c-0.08,0-0.41,0.01-0.76,0.35c-0.26,0.26-0.52,0.52-0.67,0.8    c-0.09-0.09-0.19-0.19-0.28-0.28c-0.56-0.54-1.1-0.56-1.23-0.56c-0.13,0-0.67,0.02-1.23,0.56c-0.65,0.63-1.27,1.28-1.27,2.02    c0,0.73,0.54,1.32,1.2,1.32h1.56c1.23,0.62,2.98,1.08,4.74,1.23c-0.36,0.36-0.67,0.74-0.85,1.13c-1.13-0.13-2.2-0.36-3.25-0.72    c-0.12-0.33-0.41-0.63-0.71-0.93c-0.33-0.32-0.66-0.34-0.74-0.34c-0.08,0-0.38,0.01-0.71,0.31C92.26,7.39,91,6.49,90.79,6.3    c0.01-0.06,0.01-0.13,0.01-0.19c0-0.72-0.61-1.35-1.24-1.96C89.03,3.62,88.5,3.6,88.37,3.6c-0.13,0-0.65,0.02-1.19,0.55    c-0.63,0.61-1.24,1.24-1.24,1.96c0,0.71,0.52,1.28,1.17,1.28h0.07c0.27,0.37,0.81,1.02,1.67,1.74c-0.13,0.19-0.21,0.38-0.21,0.59    c0,0.44,0.32,0.79,0.72,0.79h1.45c1.88,1.1,3.72,1.57,3.93,1.63c0.06,0.37,0.35,0.65,0.71,0.65h1.56c0.14,0,0.28-0.05,0.39-0.12    c0.8,0.1,1.62,0.16,2.46,0.18c-0.05,0.14-0.13,0.27-0.23,0.38c0.2,0.23,0.32,0.53,0.32,0.87c0,0.19-0.04,0.36-0.11,0.52    c-1.98-0.03-7.71-0.32-12.1-4.01c0.15-0.2,0.24-0.45,0.24-0.73c0-0.64-0.54-1.2-1.1-1.75c-0.48-0.47-0.95-0.49-1.06-0.49    c-0.11,0-0.58,0.02-1.06,0.49c-0.56,0.54-1.1,1.1-1.1,1.75c0,0.63,0.46,1.14,1.04,1.14h2.25c0.03,0,0.05,0,0.08,0    c4.52,4,10.61,4.33,12.59,4.38c0.2,0.23,0.33,0.53,0.33,0.87c0,0.33-0.12,0.64-0.32,0.86c0.2,0.23,0.32,0.53,0.32,0.86    s-0.12,0.64-0.32,0.86c0.2,0.23,0.32,0.53,0.32,0.86c0,0.35-0.13,0.67-0.35,0.9c0,0,0.51,0.32,0.91,1.11    c0.4-0.79,0.91-1.11,0.91-1.11c-0.21-0.23-0.35-0.55-0.35-0.9c0-0.33,0.12-0.64,0.32-0.86c-0.2-0.23-0.32-0.53-0.32-0.86    s0.12-0.64,0.32-0.86c-0.2-0.23-0.32-0.53-0.32-0.86c0-0.34,0.12-0.65,0.33-0.87c1.98-0.05,8.08-0.38,12.59-4.38    c0.03,0,0.05,0,0.08,0h2.25c0.57,0,1.04-0.51,1.04-1.14c0-0.64-0.54-1.2-1.1-1.75c-0.48-0.47-0.95-0.49-1.06-0.49    c-0.11,0-0.58,0.02-1.06,0.49c-0.56,0.54-1.1,1.1-1.1,1.75c0,0.28,0.09,0.53,0.24,0.73c-4.39,3.69-10.11,3.98-12.1,4.01    c-0.07-0.16-0.11-0.34-0.11-0.52c0-0.34,0.12-0.64,0.32-0.87c-0.1-0.11-0.17-0.24-0.23-0.38c0.84-0.02,1.66-0.08,2.46-0.18    c0.11,0.08,0.24,0.12,0.39,0.12h1.56c0.35,0,0.65-0.28,0.71-0.65c0.21-0.06,2.05-0.52,3.93-1.63h1.45c0.4,0,0.72-0.35,0.72-0.79    c0-0.21-0.08-0.4-0.21-0.59c0.86-0.73,1.4-1.38,1.67-1.74h0.07c0.64,0,1.17-0.57,1.17-1.28c0-0.72-0.61-1.35-1.24-1.96    c-0.54-0.53-1.07-0.55-1.19-0.55c-0.13,0-0.65,0.02-1.19,0.55c-0.63,0.61-1.24,1.24-1.24,1.96c0,0.07,0,0.13,0.01,0.19    c-0.21,0.18-1.47,1.09-1.88,1.32c-0.32-0.3-0.63-0.31-0.71-0.31c-0.08,0-0.4,0.01-0.74,0.34c-0.3,0.29-0.6,0.6-0.71,0.93    c-1.05,0.35-2.12,0.58-3.25,0.72c-0.17-0.4-0.49-0.77-0.85-1.13c1.76-0.15,3.51-0.61,4.74-1.23h1.56c0.66,0,1.2-0.59,1.2-1.32    c0-0.74-0.63-1.39-1.27-2.02c-0.56-0.54-1.1-0.56-1.23-0.56c-0.13,0-0.67,0.02-1.23,0.56c-0.1,0.09-0.19,0.19-0.28,0.28    c-0.14-0.28-0.4-0.54-0.67-0.8c-0.34-0.33-0.68-0.35-0.76-0.35c-0.08,0-0.41,0.01-0.76,0.35c-0.15,0.15-0.31,0.3-0.43,0.46    c-0.26-0.31-0.56-0.61-0.87-0.9C101.39,1.96,100.73,1.91,100.51,1.91z M101.32,7.51c-0.07-0.04-0.13-0.07-0.2-0.1    c0.04-0.26,0.12-0.41,0.19-0.49h0.87c0.85,0,1.54-0.76,1.54-1.69c0-0.03,0-0.06,0-0.09h0.94c-0.06,0.16-0.09,0.32-0.09,0.48    c0,0.53,0.29,0.99,0.7,1.2C103.93,7.26,102.51,7.47,101.32,7.51z M101.07,11.95c0-0.25,0.07-0.49,0.19-0.69h0.58h0.01    c0.63,0,1.15-0.52,1.22-1.19c1.14-0.14,2.23-0.37,3.23-0.7c0.13,0.18,0.33,0.29,0.56,0.29h1.56c0.4,0,0.72-0.35,0.72-0.79    c0-0.23-0.1-0.44-0.25-0.65c0.4-0.23,1.52-1.04,1.69-1.18c0.21,0.22,0.49,0.36,0.81,0.36h1.46c-0.28,0.32-0.67,0.73-1.19,1.16    c-0.01-0.01-0.03-0.03-0.04-0.04c-0.33-0.32-0.66-0.34-0.74-0.34c-0.08,0-0.4,0.01-0.74,0.34c-0.39,0.38-0.77,0.77-0.77,1.21    c0,0.12,0.02,0.23,0.07,0.33c-1.63,0.89-3.18,1.28-3.37,1.34c-0.14-0.21-0.34-0.41-0.54-0.6c-0.33-0.32-0.66-0.34-0.74-0.34    c-0.08,0-0.4,0.01-0.74,0.34c-0.36,0.35-0.72,0.72-0.76,1.13c-0.72,0.08-1.46,0.13-2.21,0.15    C101.07,12.03,101.07,11.99,101.07,11.95z"></path>
	</g>
</g>
</svg>