<svg xmlns="http://www.w3.org/2000/svg" xmlns:xlink="http://www.w3.org/1999/xlink" id="Layer_1" x="0px" y="0px" viewBox="0 0 200 100" style="enable-background:new 0 0 200 100;" xml:space="preserve">
<style type="text/css">
	.st0{fill:#FFFFFF;}
</style>
<g>
	<g>
		<g>
			<path class="st0" d="M185.8,64.5c-2.3,0-4.2,1.9-4.2,4.2c0,2.3,1.9,4.2,4.2,4.2c2.3,0,4.2-1.9,4.2-4.2     C190,66.3,188.1,64.5,185.8,64.5z M185.8,72c-1.9,0-3.4-1.5-3.4-3.3c0-1.9,1.5-3.3,3.4-3.3c1.8,0,3.3,1.5,3.3,3.3     C189.1,70.5,187.7,72,185.8,72z"></path>
			<path class="st0" d="M186.9,68.7c0.3-0.1,0.7-0.5,0.7-1.1c0-1-0.9-1.3-1.4-1.3c-0.4,0-2.2,0-2.2,0v4.5h1V69c0,0,0.1,0,0.4,0     c0.5,0,0.8,0.1,1,0.6c0.1,0.3,0.2,0.7,0.4,1.1c0.4,0,0.6,0,1.1,0c-0.1-0.3-0.3-0.6-0.4-1.1C187.5,69.2,187.3,68.9,186.9,68.7z      M186,68.1c-0.4,0-0.8,0-0.8,0v-1c0,0,0.4,0,0.7,0c0.3,0,0.7,0.1,0.7,0.5C186.5,67.9,186.3,68.1,186,68.1z"></path>
		</g>
		<g>
			<path class="st0" d="M56.1,89.3c-1.2,1.2-2.7,2.4-4.2,2.9c-1.4,0.5-5.5,0.8-6.7-2.6c-0.3-0.7,0-1,0.6-1.1c1-0.3,3.5-1,6.2-2     c2.4-0.9,4.6-2,5.3-2.5c1.2-0.8,1.4-1.9,0.9-3.1c-1.7-3.8-5.6-7.8-12-6.6c-5.1,1-8.7,5.6-8.7,10.8c0,6.5,3.9,10.3,8.9,11.5     c4.6,1.1,10-1.1,12.3-4.9C59.6,90.2,57,88.4,56.1,89.3z M44.6,84.2c-0.5-1.4-0.1-5.6,2.2-6.4c2.4-0.8,3.9,0.4,4.7,2.9     c0.3,0.9,0.2,1.9-0.1,2.2c-0.4,0.5-1.2,0.8-1.9,1.1l-1.8,0.6C45.9,85.2,45,85.4,44.6,84.2z"></path>
			<path class="st0" d="M115.8,89.3c-1.2,1.2-2.7,2.4-4.2,2.9c-1.4,0.5-5.5,0.8-6.7-2.6c-0.3-0.7,0-1,0.6-1.1c1-0.3,3.5-1,6.2-2     c2.4-0.9,4.6-2,5.3-2.5c1.2-0.8,1.4-1.9,0.9-3.1c-1.7-3.8-5.6-7.8-12-6.6c-5.1,1-8.7,5.6-8.7,10.8c0,6.5,3.9,10.3,8.9,11.5     c4.6,1.1,10-1.1,12.3-4.9C119.3,90.2,116.7,88.4,115.8,89.3z M104.3,84.2c-0.3-0.8-0.3-2.7,0.3-4.2c0.4-1,0.9-1.8,1.9-2.2     c1.1-0.4,2.1-0.3,2.8,0.1c0.9,0.5,1.5,1.5,1.9,2.8c0.3,0.9,0.2,1.9-0.1,2.2c-0.4,0.5-1.1,0.8-1.9,1.1c-0.8,0.3-1.5,0.5-1.8,0.6     C105.6,85.2,104.7,85.4,104.3,84.2z"></path>
			<path class="st0" d="M161.3,89.3c-1.2,1.2-2.7,2.4-4.2,2.9c-1.4,0.5-5.5,0.8-6.7-2.6c-0.3-0.7,0-1,0.6-1.1c1-0.3,3.5-1,6.2-2     c2.4-0.9,4.6-2,5.3-2.5c1.2-0.8,1.4-1.9,0.9-3.1c-1.7-3.8-5.6-7.8-12-6.6c-5.1,1-8.7,5.6-8.7,10.8c0,6.5,3.9,10.3,8.9,11.5     c4.6,1.1,10-1.1,12.3-4.9C164.8,90.2,162.2,88.4,161.3,89.3z M149.8,84.2c-0.3-0.8-0.3-2.7,0.3-4.2c0.4-1,0.9-1.8,1.9-2.2     c1.1-0.4,2.1-0.3,2.8,0.1c0.9,0.5,1.5,1.5,1.9,2.8c0.3,0.9,0.2,1.9-0.1,2.2c-0.4,0.5-1.1,0.8-1.9,1.1c-0.8,0.3-1.5,0.5-1.8,0.6     C151.1,85.2,150.2,85.4,149.8,84.2z"></path>
			<path class="st0" d="M27.1,90.6c0,0.9-0.3,1.8-0.9,2.1l-1.5,0.7c-0.3,0.1-0.3,0.3-0.3,0.6c0,0.1,0,0.1,0,0.2l0.2,1.6     c0.1,0.4,0.4,0.5,1,0.5h10.5c0.6,0,0.9-0.1,1-0.5l0.2-1.6c0-0.1,0-0.1,0-0.2c0-0.3-0.1-0.5-0.3-0.6l-1.5-0.7     c-0.7-0.3-0.9-1.3-0.9-2.1V72.3c0-0.9,0.3-1.8,0.9-2.1l1.5-0.7c0.3-0.1,0.3-0.3,0.3-0.6c0-0.1,0-0.1,0-0.2l-0.2-1.2     C37,67,36.7,67,36.1,67H26c-0.6,0-0.9,0.1-1,0.5l-0.2,1.2c0,0.1,0,0.1,0,0.2c0,0.3,0.1,0.5,0.3,0.6l1.2,0.7     c0.7,0.4,0.7,1.3,0.7,2.1v5.1c0,0.4-0.3,0.6-0.6,0.6h-5.7c-0.4,0-0.6-0.3-0.6-0.6v-5.1c0-0.9,0-1.7,0.7-2.1l1.2-0.7     c0.3-0.1,0.3-0.3,0.3-0.6c0-0.1,0-0.1,0-0.2l-0.2-1.2c-0.1-0.4-0.4-0.5-1-0.5h-10c-0.6,0-0.9,0.1-1,0.5L10,68.7     c0,0.1,0,0.1,0,0.2c0,0.3,0.1,0.5,0.3,0.6l1.5,0.7c0.7,0.3,0.9,1.3,0.9,2.1v18.2c0,0.9-0.3,1.8-0.9,2.1l-1.5,0.7     c-0.3,0.1-0.3,0.3-0.3,0.6c0,0.1,0,0.1,0,0.2l0.2,1.6c0.1,0.4,0.4,0.5,1,0.5h10.5c0.6,0,0.9-0.1,1-0.5l0.2-1.6c0-0.1,0-0.1,0-0.2     c0-0.3-0.1-0.5-0.3-0.6l-1.5-0.7c-0.7-0.3-0.9-1.3-0.9-2.1v-7.4c0-0.4,0.3-0.6,0.6-0.6h5.7c0.4,0,0.6,0.3,0.6,0.6V90.6z"></path>
			<g>
				<path class="st0" d="M68.6,70c0,2-1.7,3.7-3.8,3.7c-2.1,0-3.8-1.6-3.8-3.7c0-2,1.7-3.7,3.8-3.7C66.9,66.4,68.6,68,68.6,70z"></path>
				<path class="st0" d="M60.7,96.3c-0.6,0-0.9-0.1-0.9-0.5l-0.2-1.6c0-0.1,0-0.1,0-0.2c0-0.3,0.1-0.4,0.3-0.6l1.1-0.6      c0.6-0.3,0.9-1.2,0.9-2V80.3c0-0.9-0.1-2-0.9-2.4l-0.7-0.4c-0.3-0.1-0.3-0.3-0.3-0.6c0-0.1,0-0.1,0-0.2l0.2-1.2      c0.1-0.4,0.4-0.5,1-0.5h7.1c0.4,0,0.6,0.3,0.6,0.6v15.1c0,0.8,0.3,1.7,0.9,2l1.1,0.6c0.2,0.1,0.3,0.3,0.3,0.6c0,0.1,0,0.1,0,0.2      L71,95.8c-0.1,0.4-0.4,0.5-0.9,0.5H60.7z"></path>
			</g>
			<path class="st0" d="M82.2,76.1c0,0,0.4-0.2,1.1-0.5c1.4-0.7,4.2-1.9,6.5-1.1c2,0.6,3.7,2.1,3.7,5.9c0,4.3,0,9.8,0,11.5     c0,0.5,0,0.7,0.2,0.8c0.3,0.2,0.8-0.3,1.3-0.6c0.5-0.3,0.8,0,1.1,0.4c0.3,0.3,0.6,0.7,0.3,1.3c-0.9,1.8-2.8,2.8-5,2.8     c-2.1,0-4.8-1.2-4.8-4.4s0-9.7,0-11.1c0-1.7-1.2-2.3-2.2-2.2c-1.4,0.2-2.5,1.4-2.5,3.5l0,8.3c0,0.8,0.3,1.7,0.9,2l1.1,0.6     c0.2,0.1,0.3,0.3,0.3,0.6c0,0.1,0,0.1,0,0.2l-0.2,1.6c-0.1,0.4-0.4,0.5-0.9,0.5h-9.4c-0.6,0-0.9-0.1-0.9-0.5l-0.2-1.6     c0-0.1,0-0.1,0-0.2c0-0.3,0.1-0.4,0.3-0.6l1.1-0.6c0.6-0.3,0.9-1.2,0.9-2V80.3c0-0.9-0.1-2-0.9-2.4l-0.7-0.4     c-0.3-0.1-0.3-0.3-0.3-0.6c0-0.1,0-0.1,0-0.2l0.2-1.2c0.1-0.4,0.4-0.5,1-0.5h6.7c0.5,0,0.7,0.3,0.9,0.6L82.2,76.1z"></path>
			<path class="st0" d="M174.1,76.1c0,0,0.4-0.2,1.1-0.5c1.4-0.7,4.2-1.9,6.5-1.1c2,0.6,3.7,2.1,3.7,5.9c0,4.3,0,9.8,0,11.5     c0,0.5,0,0.7,0.2,0.8c0.3,0.2,0.8-0.3,1.3-0.6c0.5-0.3,0.8,0,1.1,0.4c0.3,0.3,0.6,0.7,0.3,1.3c-0.9,1.8-2.8,2.8-5,2.8     c-2.1,0-4.8-1.2-4.8-4.4s0-9.7,0-11.1c0-1.7-1.2-2.3-2.2-2.2c-1.4,0.2-2.5,1.4-2.5,3.5l0,8.3c0,0.8,0.3,1.7,0.9,2l1.1,0.6     c0.2,0.1,0.3,0.3,0.3,0.6c0,0.1,0,0.1,0,0.2l-0.2,1.6c-0.1,0.4-0.4,0.5-0.9,0.5h-9.4c-0.6,0-0.9-0.1-0.9-0.5l-0.2-1.6     c0-0.1,0-0.1,0-0.2c0-0.3,0.1-0.4,0.3-0.6l1.1-0.6c0.6-0.3,0.9-1.2,0.9-2V80.3c0-0.9-0.1-2-0.9-2.4l-0.7-0.4     c-0.3-0.1-0.3-0.3-0.3-0.6c0-0.1,0-0.1,0-0.2l0.2-1.2c0.1-0.4,0.4-0.5,1-0.5h6.7c0.5,0,0.7,0.3,0.9,0.6L174.1,76.1z"></path>
			<path class="st0" d="M140,91c0.5,0.8,1.1,1.4,1.7,1.8l1.1,0.6c0.2,0.1,0.3,0.3,0.3,0.6c0,0.1,0,0.1,0,0.2l-0.2,1.6     c-0.1,0.4-0.4,0.5-0.9,0.5h-5.7c-1,0-1-0.3-1.5-1.1l-4.8-8.7l-1.8,1.7l0,2.4c0,0.8,0.4,1.7,1,2l1.1,0.6c0.2,0.1,0.3,0.3,0.3,0.6     c0,0.1,0,0.1,0,0.2l-0.2,1.6c-0.1,0.4-0.4,0.5-0.9,0.5h-9.4c-0.6,0-0.9-0.1-0.9-0.5l-0.2-1.6c0-0.1,0-0.1,0-0.2     c0-0.3,0.1-0.4,0.3-0.6l1.1-0.6c0.6-0.3,0.9-1.2,0.9-2V72.1c0-0.8-0.3-1.7-0.9-2l-1.1-0.6c-0.2-0.1-0.3-0.3-0.3-0.6     c0-0.1,0-0.1,0-0.2l0.2-1.2c0.1-0.4,0.4-0.5,0.9-0.5h6.8c0.7,0,1.2,0.5,1.2,1.2v14.1l3-2.7c0.4-0.4,1.1-1,1.4-1.3     c0.3-0.3,0.3-0.7-0.1-0.8l-1.1-0.5c-0.2-0.1-0.3-0.3-0.3-0.5c0-0.1,0-0.1,0-0.2l0.2-1.5c0.1-0.4,0.3-0.5,0.9-0.5h8.2     c0.5,0,0.8,0.1,0.9,0.5l0.2,1.5c0,0.1,0,0.1,0,0.2c0,0.3-0.4,0.5-0.6,0.6c0,0-0.6,0.2-1.1,0.5c-0.5,0.3-1.1,0.8-1.8,1.4l-3.2,3     L140,91z"></path>
		</g>
	</g>
	<g>
		<g>
			<path class="st0" d="M132.8,51l0-0.1h-0.9c0,0.8,0.5,1.4,1.3,1.4c0.9,0,1.5-0.6,1.5-1.5c0-0.5-0.2-1-0.8-1.2v0     c0.5-0.2,0.6-0.7,0.6-1.2c0-0.8-0.5-1.3-1.3-1.3c-0.9,0-1.2,0.7-1.2,1.5h0.9v-0.1c0-0.2,0-0.5,0.3-0.5c0.3,0,0.3,0.3,0.3,0.5     c0,0.6-0.2,0.7-0.8,0.7V50c0.6,0,0.8,0.1,0.8,0.7c0,0.3,0,0.7-0.4,0.7C132.9,51.4,132.8,51.2,132.8,51"></path>
			<polygon class="st0" points="131.2,47.2 128.5,47.2 128.5,48.1 129.9,48.1 128.3,52.2 129.3,52.2    "></polygon>
			<path class="st0" d="M126.4,49.5L126.4,49.5c0.5-0.2,0.7-0.6,0.7-1.1c0-0.7-0.5-1.3-1.3-1.3c-0.8,0-1.3,0.6-1.3,1.3     c0,0.5,0.2,0.9,0.7,1.1v0c-0.6,0.2-0.9,0.7-0.9,1.3c0,0.8,0.6,1.5,1.4,1.5c0.8,0,1.4-0.6,1.4-1.5C127.3,50.2,127,49.7,126.4,49.5      M125.8,47.9c0.3,0,0.3,0.3,0.3,0.5c0,0.2,0,0.6-0.3,0.6c-0.2,0-0.3-0.4-0.3-0.6C125.6,48.2,125.6,47.9,125.8,47.9 M125.8,51.4     c-0.3,0-0.4-0.5-0.4-0.7c0-0.3,0.1-0.7,0.4-0.7c0.3,0,0.4,0.5,0.4,0.7C126.3,51,126.2,51.4,125.8,51.4"></path>
			<polygon class="st0" points="123,47.2 121.6,47.2 121.6,48.1 122.1,48.1 122.1,52.2 123,52.2    "></polygon>
		</g>
		<g>
			<polygon class="st0" points="67,47.2 64.8,47.2 64.8,52.2 67,52.2 67,51.3 65.9,51.3 65.9,50.2 66.8,50.2 66.8,49.2 65.9,49.2      65.9,48.1 67,48.1    "></polygon>
			<path class="st0" d="M76.7,51c-0.4,0-0.6,0.3-0.6,0.6c0,0.4,0.3,0.6,0.6,0.6c0.3,0,0.6-0.3,0.6-0.6C77.3,51.3,77,51,76.7,51"></path>
			<polygon class="st0" points="75.3,47.2 72.5,47.2 72.5,48.1 73.3,48.1 73.3,52.2 74.4,52.2 74.4,48.1 75.3,48.1    "></polygon>
			<path class="st0" d="M71,48.3v-1c-0.3-0.2-0.6-0.2-1-0.2c-0.9,0-1.4,0.7-1.4,1.5c0,0.7,0.4,1.1,1,1.5c0.3,0.2,0.6,0.3,0.6,0.7     c0,0.3-0.3,0.5-0.6,0.5c-0.3,0-0.6-0.1-0.8-0.3v1c0.3,0.2,0.6,0.3,0.9,0.3c1,0,1.6-0.7,1.6-1.6c0-1.4-1.7-1.4-1.7-2.2     c0-0.3,0.2-0.5,0.5-0.5C70.5,48,70.7,48.2,71,48.3"></path>
		</g>
		<g>
			<path class="st0" d="M88.8,35.2l-6.3,19.5c0,0,0,0.1,0,0.1c0,0,0,0,0.1,0.1c0.1,0,0.1,0.1,0.1,0.1c0,0,0.1,0,0.1,0l16.6-12     l16.6,12c0,0,0.1,0,0.1,0c0,0,0.1,0,0.1-0.1c0.1,0,0.1-0.1,0.1-0.1c0,0,0-0.1,0-0.1l-6.3-19.5l16.6-12c0,0,0-0.1,0-0.1     c0,0,0-0.1,0-0.1c0-0.1,0-0.1,0-0.1c0,0,0-0.1-0.1-0.1l-20.5,0L99.6,3.3c0,0,0-0.1-0.1-0.1c0,0-0.1,0-0.1,0c-0.1,0-0.1,0-0.1,0     c0,0-0.1,0-0.1,0.1l-6.3,19.5l-20.5,0c0,0-0.1,0-0.1,0.1c0,0,0,0.1,0,0.1c0,0.1,0,0.1,0,0.1c0,0,0,0.1,0,0.1L88.8,35.2z"></path>
		</g>
	</g>
</g>
</svg>