<svg xmlns="http://www.w3.org/2000/svg" width="218.035" height="47.288" viewBox="0 0 218.035 47.288"><g id="Grupo_450" data-name="Grupo 450" transform="translate(-26.621 -22.299)"><g id="Grupo_3" data-name="Grupo 3" transform="translate(-142.838 -43.861)"><path id="Caminho_1" data-name="Caminho 1" d="M290.812,86.887q.321-.684.779-1.713t.8-2.013a7.507,7.507,0,0,0,.411-1.691c.047-.471-.084-.707-.389-.707q-.276,0-1.031.9T289.6,84.018q-1.03,1.457-2.2,3.319t-2.336,3.791q-1.169,1.926-2.176,3.79t-1.717,3.319a17.193,17.193,0,0,0-.985,2.356q-.276.9.092.9.458,0,1.351-.985A29.677,29.677,0,0,0,283.621,98q1.1-1.52,2.29-3.276t2.153-3.3l.458-.771.458-.771Zm1.6-7.238q1.144,0,1.42.749a3.144,3.144,0,0,1,.046,1.777,6.982,6.982,0,0,1,1.306-1.306,5.206,5.206,0,0,1,1.534-.771,8.809,8.809,0,0,1,2.038-.364q1.166-.086,2.816-.086-3.8,6.125-6.641,10.921-1.237,2.055-2.358,4.026t-1.9,3.49q-.778,1.52-1.145,2.463t-.092.942a1.783,1.783,0,0,0,1.054-.6,17.36,17.36,0,0,0,1.786-2.142q1.145-1.541,2.932-4.24t4.4-6.895h1.008q-2.519,4.24-4.305,7.153t-3.137,4.71a13.227,13.227,0,0,1-2.4,2.592,3.552,3.552,0,0,1-2.153.792,3.512,3.512,0,0,1-1.923-.47,2.509,2.509,0,0,1-1.03-1.307,5.018,5.018,0,0,1-.229-1.992,12.1,12.1,0,0,1,.435-2.484,35.688,35.688,0,0,1-3.389,4.54,4.289,4.289,0,0,1-3.023,1.713,3.3,3.3,0,0,1-2.7-1.006,4.028,4.028,0,0,1-.824-2.634,11.316,11.316,0,0,1,.733-3.705,26.785,26.785,0,0,1,1.97-4.262,33.018,33.018,0,0,1,2.886-4.261,29.391,29.391,0,0,1,3.48-3.7,19.143,19.143,0,0,1,3.733-2.634A7.863,7.863,0,0,1,292.415,79.65Zm-7.008-4.412a4.624,4.624,0,0,1-.778,1.221,6.074,6.074,0,0,1-1.122,1.006,5.92,5.92,0,0,1-1.305.685,3.778,3.778,0,0,1-1.328.258A1.944,1.944,0,0,1,279,77.551a2.226,2.226,0,0,1,.046-2.184,4.627,4.627,0,0,1,.778-1.221,6.756,6.756,0,0,1,1.122-1.027,5.441,5.441,0,0,1,1.3-.707,3.9,3.9,0,0,1,1.374-.258,1.968,1.968,0,0,1,1.855.9A2.274,2.274,0,0,1,285.407,75.238Zm-15.342,27.625q-3.8,0-3.641-3.148t4.053-9.829q1.7-2.912,2.725-4.711a10.8,10.8,0,0,1,2.13-2.763,5.7,5.7,0,0,1,2.679-1.284,22.741,22.741,0,0,1,4.329-.321q-3.618,5.825-6.32,10.364-1.145,1.927-2.2,3.79t-1.809,3.319a21.259,21.259,0,0,0-1.076,2.334q-.321.878-.047.878a1.866,1.866,0,0,0,1.077-.6,15.836,15.836,0,0,0,1.809-2.142q1.144-1.541,2.908-4.24t4.42-6.895h.961q-2.519,4.24-4.3,7.153t-3.137,4.71a13.163,13.163,0,0,1-2.405,2.592A3.551,3.551,0,0,1,270.065,102.862Zm2.7-15.247q-2.473,4.24-4.58,7.153a45.862,45.862,0,0,1-3.825,4.71,14.62,14.62,0,0,1-3.091,2.592,5.016,5.016,0,0,1-2.427.792q-1.878,0-2.358-1.092a4.392,4.392,0,0,1,0-2.891,20.192,20.192,0,0,1,1.671-4.07q1.191-2.268,2.656-4.625,1.008-1.628,2.016-3.127t1.763-2.634q.756-1.136,1.145-1.8t.206-.663a3.14,3.14,0,0,0-1.65.985,23.518,23.518,0,0,0-2.862,3.384q-1.763,2.4-4.236,6.425t-5.725,10.107a3.764,3.764,0,0,1-2.932-.621,2.632,2.632,0,0,1-.71-2.227,11.133,11.133,0,0,1,.916-3.34,37.854,37.854,0,0,1,1.923-3.9q1.123-1.992,2.382-3.919t2.244-3.448q.985-1.52,1.511-2.463t.206-.942q-.687,0-1.878,1.306a34.487,34.487,0,0,0-2.61,3.319q-1.42,2.014-2.931,4.454t-2.84,4.711q-1.328,2.27-2.336,4.068T243,102.392a2.591,2.591,0,0,1-.275.47,4.55,4.55,0,0,1-2.771-.685,2.391,2.391,0,0,1-.778-2.228,13.024,13.024,0,0,1,1.213-4.025,59.631,59.631,0,0,1,3.206-6.039q1.7-2.912,3.022-4.883a17.178,17.178,0,0,1,2.634-3.148,8.086,8.086,0,0,1,2.817-1.691,11.122,11.122,0,0,1,3.572-.514q-1.054,1.328-2.13,2.634t-2.129,2.8a38.053,38.053,0,0,0-2.061,3.3,41.368,41.368,0,0,0-1.969,4.068q1.465-2.613,3.022-4.925a37.05,37.05,0,0,1,3.137-4.069,15.33,15.33,0,0,1,3.229-2.784,6.2,6.2,0,0,1,3.3-1.027,2.914,2.914,0,0,1,1.809.429,1.5,1.5,0,0,1,.55,1.178A4.256,4.256,0,0,1,262,82.99a16.276,16.276,0,0,1-1.053,2.056,21.525,21.525,0,0,1,3.846-3.9,6.547,6.547,0,0,1,3.985-1.5q1.647,0,2.038,1.007a4.283,4.283,0,0,1-.069,2.655,19.106,19.106,0,0,1-1.557,3.726q-1.1,2.076-2.382,4.218-.686,1.242-1.327,2.27t-1.259,1.928q-.618.9-1.191,1.713t-1.076,1.627a7.124,7.124,0,0,0-.48.878,2.973,2.973,0,0,0-.253.749q-.046.3.092.365c.092.043.275-.05.551-.278a29.127,29.127,0,0,0,4.029-4.327,93.485,93.485,0,0,0,5.908-8.565Zm-31.557-7.024a1.827,1.827,0,0,0-.961.578,13.392,13.392,0,0,0-1.442,1.584q-.8,1.007-1.764,2.334t-1.923,2.827q-.962,1.5-1.9,3.084t-1.672,3.084a8.757,8.757,0,0,0,2.358-1.8,29.69,29.69,0,0,0,2.359-2.742q1.145-1.5,2.153-3.084t1.694-2.891a21.057,21.057,0,0,0,1.008-2.142Q241.44,80.591,241.211,80.592Zm4.81,7.024a56.568,56.568,0,0,1-3.71,6.317,31.2,31.2,0,0,1-3.985,4.8,16.89,16.89,0,0,1-4.236,3.062,10.1,10.1,0,0,1-4.512,1.071,5.524,5.524,0,0,1-3.6-1.006,4.221,4.221,0,0,1-1.489-2.634,8.814,8.814,0,0,1,.275-3.705,20.539,20.539,0,0,1,1.7-4.262A27.18,27.18,0,0,1,232.9,83.29a19.008,19.008,0,0,1,4.077-2.634,9.843,9.843,0,0,1,4.236-1.007,3.821,3.821,0,0,1,2.886.964,3.459,3.459,0,0,1,.916,2.485,7.248,7.248,0,0,1-.939,3.319,13.609,13.609,0,0,1-2.7,3.49,18.42,18.42,0,0,1-4.328,3.02,19.866,19.866,0,0,1-5.862,1.884,27.145,27.145,0,0,0-1.122,2.72,9.868,9.868,0,0,0-.526,2.206,2.548,2.548,0,0,0,.206,1.478,1.123,1.123,0,0,0,1.076.535,6.815,6.815,0,0,0,2.13-.514,11.747,11.747,0,0,0,3.252-2.055,32.2,32.2,0,0,0,4.122-4.3,46.062,46.062,0,0,0,4.695-7.259Zm-16.076,0a17.906,17.906,0,0,1-2.588,3.426,20.671,20.671,0,0,1-3.023,2.612,14.971,14.971,0,0,1-2.977,1.649,6.746,6.746,0,0,1-2.4.578q-1.557,0-1.694-1.028a5.274,5.274,0,0,1,.481-2.569,22.349,22.349,0,0,1,1.74-3.362q1.123-1.821,2.153-3.362t1.672-2.57q.641-1.028.321-1.027-.5,0-1.535.942a22.2,22.2,0,0,0-2.656,3.191q-1.625,2.248-3.938,6.017t-5.382,9.422q-.229.471-.412.793t-.321.535a4.548,4.548,0,0,1-2.771-.685,2.389,2.389,0,0,1-.778-2.228,12.985,12.985,0,0,1,1.213-4.025,59.628,59.628,0,0,1,3.206-6.039q1.694-2.912,3.022-4.883a17.122,17.122,0,0,1,2.634-3.148,8.083,8.083,0,0,1,2.816-1.691,11.127,11.127,0,0,1,3.573-.514,22.318,22.318,0,0,0-1.9,2.077q-1.076,1.306-2.152,2.869a37.855,37.855,0,0,0-2.016,3.276,21.744,21.744,0,0,0-1.489,3.3q1.6-2.74,3.137-4.882a28.433,28.433,0,0,1,3.023-3.62,11.979,11.979,0,0,1,3.022-2.248,6.911,6.911,0,0,1,3.137-.771,2.258,2.258,0,0,1,1.763.557,1.853,1.853,0,0,1,.367,1.5,7.149,7.149,0,0,1-.665,2.119,24.958,24.958,0,0,1-1.3,2.42q-.756,1.242-1.535,2.42t-1.4,2.119a15.2,15.2,0,0,0-.893,1.5q-.275.556.045.556a2.08,2.08,0,0,0,.916-.429,12.573,12.573,0,0,0,1.443-1.156,17.983,17.983,0,0,0,1.6-1.669,16.731,16.731,0,0,0,1.443-1.97Zm-22.076-7.024a1.825,1.825,0,0,0-.962.578,13.456,13.456,0,0,0-1.442,1.584q-.8,1.007-1.763,2.334t-1.924,2.827q-.961,1.5-1.9,3.084T198.2,94.083a8.769,8.769,0,0,0,2.359-1.8,29.793,29.793,0,0,0,2.358-2.742q1.145-1.5,2.153-3.084t1.694-2.891a21.243,21.243,0,0,0,1.008-2.142Q208.1,80.591,207.869,80.592Zm4.808,7.024a56.355,56.355,0,0,1-3.709,6.317,31.123,31.123,0,0,1-3.985,4.8,16.877,16.877,0,0,1-4.236,3.062,10.1,10.1,0,0,1-4.511,1.071,5.523,5.523,0,0,1-3.6-1.006,4.215,4.215,0,0,1-1.489-2.634,8.8,8.8,0,0,1,.275-3.705,20.537,20.537,0,0,1,1.694-4.262,27.167,27.167,0,0,1,6.435-7.966,18.987,18.987,0,0,1,4.076-2.634,9.844,9.844,0,0,1,4.236-1.007,3.823,3.823,0,0,1,2.886.964,3.462,3.462,0,0,1,.916,2.485,7.248,7.248,0,0,1-.939,3.319,13.641,13.641,0,0,1-2.7,3.49,18.449,18.449,0,0,1-4.328,3.02,19.871,19.871,0,0,1-5.863,1.884,27.312,27.312,0,0,0-1.122,2.72,9.907,9.907,0,0,0-.526,2.206,2.541,2.541,0,0,0,.206,1.478,1.122,1.122,0,0,0,1.076.535,6.812,6.812,0,0,0,2.129-.514,11.726,11.726,0,0,0,3.252-2.055,32.239,32.239,0,0,0,4.122-4.3,46.06,46.06,0,0,0,4.695-7.259ZM194.77,69.928a3.829,3.829,0,0,0-2.679.749,17.3,17.3,0,0,0-3.229,2.741,42.752,42.752,0,0,0-3.457,4.175,58.551,58.551,0,0,0-3.321,5.054,7.5,7.5,0,0,0,3.6-.707,18.351,18.351,0,0,0,3.687-2.184,23.827,23.827,0,0,0,3.252-2.955,17.281,17.281,0,0,0,2.29-3.062,5.843,5.843,0,0,0,.87-2.506A1.173,1.173,0,0,0,194.77,69.928Zm-8.335-1.071a5.11,5.11,0,0,0-2.061.514,12.824,12.824,0,0,0-2.29,1.349,15.858,15.858,0,0,0-2.175,1.927,13.927,13.927,0,0,0-1.763,2.292,9.136,9.136,0,0,0-1.054,2.4,3.945,3.945,0,0,0,0,2.227,40.929,40.929,0,0,1,4.053-4.754,26.058,26.058,0,0,1,4.511-3.662,15.2,15.2,0,0,1,4.832-2.034,9.773,9.773,0,0,1,4.969.171,6.232,6.232,0,0,1,3.779,2.313,4.263,4.263,0,0,1,.573,3.362,8.443,8.443,0,0,1-2.038,3.662,14.612,14.612,0,0,1-4.1,3.169,18.674,18.674,0,0,1-5.588,1.884,16.723,16.723,0,0,1-6.5-.171q-.183.3-.343.578c-.106.185-.206.378-.3.578q-.825,1.5-1.764,3.319t-1.809,3.7q-.87,1.884-1.534,3.64a16.791,16.791,0,0,0-.893,3.127,4.481,4.481,0,0,0,.068,2.205,1.273,1.273,0,0,0,1.352.836,2.6,2.6,0,0,0,1.6-1.007A24.456,24.456,0,0,0,180,98q1.077-1.477,2.176-3.191t2.015-3.169q.229-.385.458-.749c.153-.243.306-.479.458-.707q.366-.6.641-.985t.458-.6h.046a8.011,8.011,0,0,1,1.4-1.264,6.436,6.436,0,0,1,1.58-.792,8.619,8.619,0,0,1,1.97-.407q1.1-.106,2.565-.107-3.344,5.74-5.519,9.68T184.58,102.2q-1.488,2.549-2.473,3.919a7.639,7.639,0,0,1-1.947,1.992,4.6,4.6,0,0,1-2.084.728q-1.122.106-2.908.107l.275-.6q.275-.6.8-1.691t1.259-2.57q.733-1.477,1.649-3.234a7.754,7.754,0,0,1-1.877,1.457,4.4,4.4,0,0,1-2.107.514,5.6,5.6,0,0,1-3.206-.814,4.549,4.549,0,0,1-1.717-2.227,8.075,8.075,0,0,1-.412-3.318,20.276,20.276,0,0,1,.71-4.091,31.384,31.384,0,0,1,1.626-4.5,41.347,41.347,0,0,1,2.4-4.583q.32-.557.664-1.071t.71-1.071a6.187,6.187,0,0,1-2.5-3.4,6.73,6.73,0,0,1,.115-3.769,9.311,9.311,0,0,1,2.038-3.448,10.314,10.314,0,0,1,3.275-2.441,8.142,8.142,0,0,1,3.847-.771A5.981,5.981,0,0,1,186.435,68.857Z" transform="matrix(1, -0.017, 0.017, 1, -1.502, 4.127)" fill="#fff"></path><g id="Grupo_2" data-name="Grupo 2" transform="translate(206.66 109.724)"><g id="Grupo_1" data-name="Grupo 1"><path id="Caminho_2" data-name="Caminho 2" d="M221.747,130.815v-3.724h1.02a6.442,6.442,0,0,1,.882.04,1.32,1.32,0,0,1,.431.14.791.791,0,0,1,.314.306.89.89,0,0,1,.108.444.745.745,0,0,1-.161.505,1.023,1.023,0,0,1-.515.284.888.888,0,0,1,.62.278.95.95,0,0,1,.224.663,1.054,1.054,0,0,1-.126.524.867.867,0,0,1-.36.351,1.459,1.459,0,0,1-.47.145,6.679,6.679,0,0,1-.916.044Zm.941-2.236h.2a1.121,1.121,0,0,0,.517-.083.306.306,0,0,0,.14-.286.327.327,0,0,0-.131-.3,1.041,1.041,0,0,0-.511-.085h-.219Zm0,1.475h.356a1.049,1.049,0,0,0,.511-.09.325.325,0,0,0,.15-.3.364.364,0,0,0-.138-.327.974.974,0,0,0-.508-.093h-.372Z" transform="translate(-221.747 -127.091)" fill="#f98409"></path><path id="Caminho_3" data-name="Caminho 3" d="M241.952,129.3a.721.721,0,0,1,.221-.531.733.733,0,0,1,.534-.218.753.753,0,1,1-.537,1.283A.734.734,0,0,1,241.952,129.3Z" transform="translate(-227.616 -127.515)" fill="#f98409"></path><path id="Caminho_4" data-name="Caminho 4" d="M259.809,130.815l1.284-3.724h1.272l1.287,3.724h-1.01l-.189-.667h-1.442l-.194.667Zm1.422-1.392h1.01l-.379-1.228c-.012-.037-.028-.1-.048-.18l-.079-.321c-.021.092-.043.179-.065.263s-.043.163-.065.239Z" transform="translate(-232.804 -127.091)" fill="#f98409"></path><path id="Caminho_5" data-name="Caminho 5" d="M280.953,129.3a.721.721,0,0,1,.221-.531.733.733,0,0,1,.534-.218.753.753,0,1,1-.536,1.283A.732.732,0,0,1,280.953,129.3Z" transform="translate(-238.946 -127.515)" fill="#f98409"></path><path id="Caminho_6" data-name="Caminho 6" d="M299.426,130.815v-3.724h1.061a4.4,4.4,0,0,1,.868.057,1.1,1.1,0,0,1,.424.192,1.012,1.012,0,0,1,.309.39,1.245,1.245,0,0,1,.108.521,1.108,1.108,0,0,1-.212.7,1.037,1.037,0,0,1-.619.36l1.015,1.5h-1.147l-.854-1.458v1.458Zm.952-1.964h.187a.809.809,0,0,0,.48-.112.405.405,0,0,0,.152-.351.5.5,0,0,0-.141-.4.745.745,0,0,0-.475-.118h-.2Z" transform="translate(-244.312 -127.091)" fill="#f98409"></path></g></g></g><g id="Grupo_449" data-name="Grupo 449" transform="translate(64.054 -96.257)"><g id="Grupo_447" data-name="Grupo 447"><g id="Grupo_438" data-name="Grupo 438"><path id="Caminho_438" data-name="Caminho 438" d="M172.953,141.635a.946.946,0,0,0,.084-.422,1.042,1.042,0,0,0-.084-.424,1.11,1.11,0,0,0-.221-.331,1.171,1.171,0,0,0-.308-.226,1.142,1.142,0,0,0-.34-.108q-1.683-.228-3.366-.34l.489-4.737a47.776,47.776,0,0,1,5.149.672v1.669q-1.821-.341-3.642-.533l-.152,1.414q.762.08,1.524.183a2.89,2.89,0,0,1,.992.327,3.036,3.036,0,0,1,.834.66,3.2,3.2,0,0,1,.577.932,2.992,2.992,0,0,1,.215,1.133,2.444,2.444,0,0,1-.215,1.058,1.938,1.938,0,0,1-.577.721,2.122,2.122,0,0,1-.834.378,2.788,2.788,0,0,1-.992.034q-1.683-.229-3.368-.34v-1.669q1.682.112,3.362.339a1.137,1.137,0,0,0,.34,0,.7.7,0,0,0,.308-.123A.68.68,0,0,0,172.953,141.635Z" fill="#e79f4f"></path></g><g id="Grupo_439" data-name="Grupo 439"><path id="Caminho_439" data-name="Caminho 439" d="M124.312,141.842v-1.669c-1.906.107-3.812.139-5.718.073v8.341c1.906.066,3.812.034,5.718-.072v-1.669c-1.35.075-2.7.113-4.049.106v-1.665q1.37.009,2.739-.044v-1.669q-1.37.051-2.739.044v-1.67C121.613,141.956,122.962,141.918,124.312,141.842Z" fill="#e79f4f"></path></g><g id="Grupo_440" data-name="Grupo 440"><path id="Caminho_440" data-name="Caminho 440" d="M139.2,141.294a3.425,3.425,0,0,0-.422-.92v0a3.333,3.333,0,0,0-.653-.728,3.279,3.279,0,0,0-.843-.509,3.653,3.653,0,0,0-1-.254,4.1,4.1,0,0,0-1.109.034q-1.255.2-2.512.384v8.342q1.256-.182,2.512-.384a4.5,4.5,0,0,0,1.109-.329,5.1,5.1,0,0,0,1-.59,5.316,5.316,0,0,0,.843-.8,5.477,5.477,0,0,0,.652-.959,5.015,5.015,0,0,0,.422-1.069,4.451,4.451,0,0,0,.148-1.135A3.856,3.856,0,0,0,139.2,141.294Zm-1.717,2.381a3.186,3.186,0,0,1-1.333,1.559,2.749,2.749,0,0,1-.974.354l-.832.132v-5c.277-.043.555-.087.832-.132a2.337,2.337,0,0,1,.974.039,2.034,2.034,0,0,1,.8.406,1.959,1.959,0,0,1,.537.7,2.2,2.2,0,0,1,.194.937l0,0A2.705,2.705,0,0,1,137.484,143.675Z" fill="#e79f4f"></path></g><g id="Grupo_441" data-name="Grupo 441"><path id="Caminho_441" data-name="Caminho 441" d="M117.862,143.278a4.424,4.424,0,0,0-.422-1.017h0a4.852,4.852,0,0,0-1.5-1.6,4.935,4.935,0,0,0-1-.516,4.767,4.767,0,0,0-1.109-.277c-.837-.108-1.674-.237-2.512-.392v8.342q1.257.231,2.512.391a3.675,3.675,0,0,0,1.109-.018,3.551,3.551,0,0,0,1.84-.917,3.834,3.834,0,0,0,.652-.8,3.923,3.923,0,0,0,.422-.973,4.074,4.074,0,0,0,.148-1.1A4.215,4.215,0,0,0,117.862,143.278Zm-1.717,1.971a2.192,2.192,0,0,1-.536.751,2.124,2.124,0,0,1-.8.457,2.227,2.227,0,0,1-.974.08q-.416-.053-.832-.114v-5q.417.06.832.114a2.758,2.758,0,0,1,.974.313,2.99,2.99,0,0,1,.8.618,2.834,2.834,0,0,1,.536.84,2.542,2.542,0,0,1,.195.986h0A2.348,2.348,0,0,1,116.145,145.249Z" fill="#e79f4f"></path></g><g id="Grupo_442" data-name="Grupo 442"><path id="Caminho_442" data-name="Caminho 442" d="M146.172,138.639V136.97c-1.9.339-3.808.692-5.712,1.035v8.342c1.906-.344,3.812-.7,5.718-1.036v-1.669c-1.349.24-2.7.487-4.049.733v-1.664q1.371-.25,2.741-.5v-1.67q-1.371.247-2.741.5v-1.671C143.477,139.126,144.824,138.879,146.172,138.639Z" fill="#e79f4f"></path></g><g id="Grupo_443" data-name="Grupo 443"><path id="Caminho_443" data-name="Caminho 443" d="M129.661,146.127a.971.971,0,0,1-.265.209.906.906,0,0,1-.327.1c-1.235.139-2.47.255-3.705.341v1.669c1.235-.086,2.47-.2,3.705-.341a2.6,2.6,0,0,0,.975-.312,3,3,0,0,0,.8-.639,2.963,2.963,0,0,0,.535-.864,2.626,2.626,0,0,0,.195-1,2.267,2.267,0,0,0-.195-.948,2.073,2.073,0,0,0-.535-.726,2.139,2.139,0,0,0-.8-.436,2.392,2.392,0,0,0-.975-.08q-.836.093-1.67.173a.782.782,0,0,1-.327-.034.725.725,0,0,1-.265-.153.733.733,0,0,1-.177-.252.808.808,0,0,1-.064-.324.871.871,0,0,1,.064-.332.932.932,0,0,1,.442-.481.9.9,0,0,1,.327-.094q1.914-.182,3.828-.439V139.5c-1.276.169-2.552.318-3.828.439a2.6,2.6,0,0,0-.972.285,2.9,2.9,0,0,0-.794.6,2.832,2.832,0,0,0-.539.832,2.494,2.494,0,0,0-.2.985,2.327,2.327,0,0,0,.2.961,2.268,2.268,0,0,0,1.333,1.236,2.27,2.27,0,0,0,.972.11q.834-.078,1.669-.173a.791.791,0,0,1,.326.027.688.688,0,0,1,.265.146.709.709,0,0,1,.178.244.773.773,0,0,1,.064.318.88.88,0,0,1-.064.333.98.98,0,0,1-.177.285Z" fill="#e79f4f"></path></g><g id="Grupo_444" data-name="Grupo 444"><path id="Caminho_444" data-name="Caminho 444" d="M163.6,137.088a3.523,3.523,0,0,0-.716-1.308h0a2.465,2.465,0,0,0-1.061-.7,3.377,3.377,0,0,0-1.3-.156,3.677,3.677,0,0,0-1.3.322,2.956,2.956,0,0,0-1.059.826,4.062,4.062,0,0,0-.712,1.394,6.9,6.9,0,0,0-.263,2.037,6.331,6.331,0,0,0,.263,1.966,3.226,3.226,0,0,0,.712,1.256,2.393,2.393,0,0,0,1.059.646,3.7,3.7,0,0,0,1.3.134,4.063,4.063,0,0,0,1.3-.3,2.854,2.854,0,0,0,1.061-.773,3.722,3.722,0,0,0,.716-1.345,6.714,6.714,0,0,0,.261-2.015A6.544,6.544,0,0,0,163.6,137.088Zm-1.328,2.03h0a5.453,5.453,0,0,1-.119,1.226,2.739,2.739,0,0,1-.343.868,1.571,1.571,0,0,1-.55.531,1.72,1.72,0,0,1-.738.21,1.354,1.354,0,0,1-1.274-.58,3.567,3.567,0,0,1-.453-2.028,3.937,3.937,0,0,1,.453-2.109,1.573,1.573,0,0,1,1.274-.764,1.375,1.375,0,0,1,1.288.6,3.587,3.587,0,0,1,.462,2.044h0Z" fill="#e79f4f"></path></g><g id="Grupo_445" data-name="Grupo 445"><path id="Caminho_445" data-name="Caminho 445" d="M152.148,141.493a.992.992,0,0,1,.177-.291,1.022,1.022,0,0,1,.265-.217.915.915,0,0,1,.326-.111c.279-.04.559-.08.838-.118a2.717,2.717,0,0,0,.971-.327,3.127,3.127,0,0,0,.794-.638,3.015,3.015,0,0,0,.538-.861,2.605,2.605,0,0,0,.2-1,2.253,2.253,0,0,0-.2-.949,2.12,2.12,0,0,0-1.332-1.167,2.241,2.241,0,0,0-.971-.069q-1.489.206-2.979.443v1.669q1.49-.235,2.979-.442a.774.774,0,0,1,.326.019.683.683,0,0,1,.443.383.774.774,0,0,1,.064.319.928.928,0,0,1-.064.337.975.975,0,0,1-.178.291,1.023,1.023,0,0,1-.265.212.93.93,0,0,1-.326.109c-.279.038-.559.078-.838.118a2.693,2.693,0,0,0-.972.338,3.127,3.127,0,0,0-1.331,1.539,2.653,2.653,0,0,0-.2,1.007v2.5c1.872-.3,3.743-.571,5.614-.79V142.13q-1.973.231-3.944.531v-.832a.869.869,0,0,1,.064-.337Z" fill="#e79f4f"></path></g><g id="Grupo_446" data-name="Grupo 446"><path id="Caminho_446" data-name="Caminho 446" d="M167.3,143.279v-8.342q-1.251-.051-2.5-.047v1.669c.278,0,.555,0,.832,0v6.672Q166.471,143.246,167.3,143.279Z" fill="#e79f4f"></path></g></g><g id="Grupo_448" data-name="Grupo 448"><path id="Caminho_447" data-name="Caminho 447" d="M120.6,152.218a48.094,48.094,0,0,1-14.651-2.12,1.441,1.441,0,0,1-.877-1.961q1.129-2.524,2.258-5.115a.44.44,0,0,0,.013-.323q-1.05-2.98-2.1-6.019a1.442,1.442,0,0,1,.324-1.474A1.419,1.419,0,0,1,107,134.82c11.859,3.511,23.972,1.3,35.686-.832,12.079-2.2,24.571-4.478,36.915-.573a1.44,1.44,0,0,1,.876,1.962q-1.128,2.521-2.257,5.113a.44.44,0,0,0-.013.323q1.05,2.98,2.1,6.02a1.447,1.447,0,0,1-.324,1.474,1.422,1.422,0,0,1-1.433.385h0c-11.859-3.509-23.973-1.3-35.686.832C135.551,150.857,128.088,152.218,120.6,152.218Zm-14.007-16.457a.43.43,0,0,0-.3.135.445.445,0,0,0-.1.457q1.049,3.038,2.1,6.014a1.443,1.443,0,0,1-.038,1.054q-1.133,2.6-2.263,5.124a.442.442,0,0,0,.266.6c12.105,3.83,24.473,1.577,36.434-.6,11.83-2.156,24.065-4.385,36.149-.808h0a.416.416,0,0,0,.427-.117.445.445,0,0,0,.1-.457q-1.05-3.036-2.1-6.013a1.436,1.436,0,0,1,.04-1.057q1.13-2.594,2.26-5.121a.442.442,0,0,0,0-.363.43.43,0,0,0-.264-.237c-12.108-3.83-24.475-1.576-36.435.6-11.83,2.156-24.061,4.385-36.149.807A.431.431,0,0,0,106.592,135.761Z" fill="#e79f4f"></path></g></g></g></svg>