<?xml version="1.0" encoding="UTF-8"?>
<svg version="1.1" xmlns="http://www.w3.org/2000/svg" width="1280" height="674">
<path d="M0 0 C422.4 0 844.8 0 1280 0 C1280 222.42 1280 444.84 1280 674 C857.6 674 435.2 674 0 674 C0 451.58 0 229.16 0 0 Z " fill="#0B3161" transform="translate(0,0)"/>
<path d="M0 0 C422.4 0 844.8 0 1280 0 C1280 102.63 1280 205.26 1280 311 C857.6 311 435.2 311 0 311 C0 208.37 0 105.74 0 0 Z " fill="#FEFDFD" transform="translate(0,363)"/>
<path d="M0 0 C422.4 0 844.8 0 1280 0 C1280 17.16 1280 34.32 1280 52 C857.6 52 435.2 52 0 52 C0 34.84 0 17.68 0 0 Z " fill="#B31942" transform="translate(0,622)"/>
<path d="M0 0 C422.4 0 844.8 0 1280 0 C1280 17.16 1280 34.32 1280 52 C857.6 52 435.2 52 0 52 C0 34.84 0 17.68 0 0 Z " fill="#FEFEFE" transform="translate(0,570)"/>
<path d="M0 0 C422.4 0 844.8 0 1280 0 C1280 17.16 1280 34.32 1280 52 C857.6 52 435.2 52 0 52 C0 34.84 0 17.68 0 0 Z " fill="#B31942" transform="translate(0,518)"/>
<path d="M0 0 C422.4 0 844.8 0 1280 0 C1280 17.16 1280 34.32 1280 52 C857.6 52 435.2 52 0 52 C0 34.84 0 17.68 0 0 Z " fill="#FEFDFD" transform="translate(0,466)"/>
<path d="M0 0 C422.4 0 844.8 0 1280 0 C1280 16.83 1280 33.66 1280 51 C857.6 51 435.2 51 0 51 C0 34.17 0 17.34 0 0 Z " fill="#B31942" transform="translate(0,415)"/>
<path d="M0 0 C253.44 0 506.88 0 768 0 C768 17.16 768 34.32 768 52 C514.56 52 261.12 52 0 52 C0 34.84 0 17.68 0 0 Z " fill="#B31A42" transform="translate(512,311)"/>
<path d="M0 0 C253.44 0 506.88 0 768 0 C768 17.16 768 34.32 768 52 C514.56 52 261.12 52 0 52 C0 34.84 0 17.68 0 0 Z " fill="#FEFEFE" transform="translate(512,259)"/>
<path d="M0 0 C253.44 0 506.88 0 768 0 C768 17.16 768 34.32 768 52 C514.56 52 261.12 52 0 52 C0 34.84 0 17.68 0 0 Z " fill="#B31A43" transform="translate(512,207)"/>
<path d="M0 0 C253.44 0 506.88 0 768 0 C768 17.16 768 34.32 768 52 C514.56 52 261.12 52 0 52 C0 34.84 0 17.68 0 0 Z " fill="#FEFCFD" transform="translate(512,155)"/>
<path d="M0 0 C253.44 0 506.88 0 768 0 C768 17.16 768 34.32 768 52 C514.56 52 261.12 52 0 52 C0 34.84 0 17.68 0 0 Z " fill="#FEFDFD" transform="translate(512,52)"/>
<path d="M0 0 C253.44 0 506.88 0 768 0 C768 17.16 768 34.32 768 52 C514.56 52 261.12 52 0 52 C0 34.84 0 17.68 0 0 Z " fill="#B31942" transform="translate(512,0)"/>
<path d="M0 0 C253.44 0 506.88 0 768 0 C768 16.83 768 33.66 768 51 C514.56 51 261.12 51 0 51 C0 34.17 0 17.34 0 0 Z " fill="#B31942" transform="translate(512,104)"/>
<path d="M0 0 C0.66 0 1.32 0 2 0 C2.50757862 1.41396902 3.00574925 2.83131729 3.5 4.25 C3.7784375 5.03890625 4.056875 5.8278125 4.34375 6.640625 C5 9 5 9 5 13 C9.95 13 14.9 13 20 13 C20 13.66 20 14.32 20 15 C17.8125 16.7265625 17.8125 16.7265625 15 18.625 C14.071875 19.25664063 13.14375 19.88828125 12.1875 20.5390625 C11.1046875 21.26222656 11.1046875 21.26222656 10 22 C10.13277344 22.59167969 10.26554687 23.18335937 10.40234375 23.79296875 C11.31005178 27.85446525 12.2091113 31.91374171 13 36 C10.15921909 34.7500564 7.96609026 33.17602101 5.5625 31.25 C2.81585254 29.18701597 2.81585254 29.18701597 -0.5625 29.375 C-3.57465841 31.38310561 -6.2339197 33.66419885 -9 36 C-9.66 36 -10.32 36 -11 36 C-10.77183594 35.25234375 -10.54367187 34.5046875 -10.30859375 33.734375 C-10.02113281 32.74953125 -9.73367188 31.7646875 -9.4375 30.75 C-9.14746094 29.77546875 -8.85742188 28.8009375 -8.55859375 27.796875 C-7.98576478 24.92872433 -7.77072919 23.62866392 -9 21 C-11.06702376 19.04025103 -11.06702376 19.04025103 -13.5625 17.3125 C-15.05438949 16.22558519 -16.53727411 15.12585569 -18 14 C-18 13.67 -18 13.34 -18 13 C-13.05 13 -8.1 13 -3 13 C-2.67 10.69 -2.34 8.38 -2 6 C-1.37743972 3.98583438 -0.72433347 1.97984481 0 0 Z " fill="#EFF1F4" transform="translate(383,89)"/>
<path d="M0 0 C0.66 0 1.32 0 2 0 C2.50757862 1.41396902 3.00574925 2.83131729 3.5 4.25 C3.7784375 5.03890625 4.056875 5.8278125 4.34375 6.640625 C5 9 5 9 5 13 C9.95 13 14.9 13 20 13 C20 13.66 20 14.32 20 15 C17.8125 16.7265625 17.8125 16.7265625 15 18.625 C14.071875 19.25664063 13.14375 19.88828125 12.1875 20.5390625 C11.1046875 21.26222656 11.1046875 21.26222656 10 22 C10.13277344 22.59167969 10.26554687 23.18335937 10.40234375 23.79296875 C11.31005178 27.85446525 12.2091113 31.91374171 13 36 C10.15921909 34.7500564 7.96609026 33.17602101 5.5625 31.25 C2.81585254 29.18701597 2.81585254 29.18701597 -0.5625 29.375 C-3.57465841 31.38310561 -6.2339197 33.66419885 -9 36 C-9.66 36 -10.32 36 -11 36 C-10.77183594 35.25234375 -10.54367188 34.5046875 -10.30859375 33.734375 C-10.02113281 32.74953125 -9.73367187 31.7646875 -9.4375 30.75 C-9.14746094 29.77546875 -8.85742188 28.8009375 -8.55859375 27.796875 C-7.98576478 24.92872433 -7.77072919 23.62866392 -9 21 C-11.06702376 19.04025103 -11.06702376 19.04025103 -13.5625 17.3125 C-15.05438949 16.22558519 -16.53727411 15.12585569 -18 14 C-18 13.67 -18 13.34 -18 13 C-13.05 13 -8.1 13 -3 13 C-2.67 10.69 -2.34 8.38 -2 6 C-1.37743972 3.98583438 -0.72433347 1.97984481 0 0 Z " fill="#EFF1F4" transform="translate(127,89)"/>
<path d="M0 0 C2 1 2 1 2.8515625 2.9609375 C3.10679687 3.75757812 3.36203125 4.55421875 3.625 5.375 C4.01558594 6.56222656 4.01558594 6.56222656 4.4140625 7.7734375 C5 10 5 10 5 13 C9.95 13 14.9 13 20 13 C15 18 15 18 9 22 C10.32 26.62 11.64 31.24 13 36 C9.96861211 34.48430606 8.08148473 33.32103595 5.5625 31.25 C2.86112436 29.20825316 2.86112436 29.20825316 -0.4375 29.375 C-1.283125 29.91125 -2.12875 30.4475 -3 31 C-3.68835938 31.41765625 -4.37671875 31.8353125 -5.0859375 32.265625 C-7.07757519 33.48157222 -9.04373129 34.72818263 -11 36 C-10.86722656 35.40832031 -10.73445313 34.81664062 -10.59765625 34.20703125 C-10.42105469 33.41683594 -10.24445313 32.62664062 -10.0625 31.8125 C-9.88847656 31.03519531 -9.71445312 30.25789063 -9.53515625 29.45703125 C-8.99488667 26.97652348 -8.49105628 24.49067284 -8 22 C-8.7940625 21.43410156 -9.588125 20.86820313 -10.40625 20.28515625 C-11.4271875 19.55167969 -12.448125 18.81820312 -13.5 18.0625 C-14.5209375 17.33160156 -15.541875 16.60070312 -16.59375 15.84765625 C-17.3878125 15.23792969 -18.181875 14.62820312 -19 14 C-19 13.67 -19 13.34 -19 13 C-14.05 13 -9.1 13 -4 13 C-3.525625 11.22625 -3.05125 9.4525 -2.5625 7.625 C-1.125 2.25 -1.125 2.25 0 0 Z " fill="#EFF2F5" transform="translate(298,89)"/>
<path d="M0 0 C2 1 2 1 2.8515625 2.9609375 C3.10679688 3.75757812 3.36203125 4.55421875 3.625 5.375 C4.01558594 6.56222656 4.01558594 6.56222656 4.4140625 7.7734375 C5 10 5 10 5 13 C9.95 13 14.9 13 20 13 C15 18 15 18 9 22 C10.32 26.62 11.64 31.24 13 36 C9.96861211 34.48430606 8.08148473 33.32103595 5.5625 31.25 C2.86112436 29.20825316 2.86112436 29.20825316 -0.4375 29.375 C-1.283125 29.91125 -2.12875 30.4475 -3 31 C-3.68835937 31.41765625 -4.37671875 31.8353125 -5.0859375 32.265625 C-7.07757519 33.48157222 -9.04373129 34.72818263 -11 36 C-10.86722656 35.40832031 -10.73445313 34.81664062 -10.59765625 34.20703125 C-10.42105469 33.41683594 -10.24445312 32.62664062 -10.0625 31.8125 C-9.88847656 31.03519531 -9.71445312 30.25789063 -9.53515625 29.45703125 C-8.99488667 26.97652348 -8.49105628 24.49067284 -8 22 C-8.7940625 21.43410156 -9.588125 20.86820313 -10.40625 20.28515625 C-11.4271875 19.55167969 -12.448125 18.81820312 -13.5 18.0625 C-14.5209375 17.33160156 -15.541875 16.60070312 -16.59375 15.84765625 C-17.3878125 15.23792969 -18.181875 14.62820312 -19 14 C-19 13.67 -19 13.34 -19 13 C-14.05 13 -9.1 13 -4 13 C-3.525625 11.22625 -3.05125 9.4525 -2.5625 7.625 C-1.125 2.25 -1.125 2.25 0 0 Z " fill="#EFF2F5" transform="translate(42,89)"/>
<path d="M0 0 C3.44587588 3.44587588 3.81292163 8.35960275 5 13 C9.95 13 14.9 13 20 13 C16.12038353 16.87961647 13.43416733 19.2157554 9 22 C9.34224609 23.13888672 9.34224609 23.13888672 9.69140625 24.30078125 C10.12259766 25.79158203 10.12259766 25.79158203 10.5625 27.3125 C10.85253906 28.29863281 11.14257812 29.28476563 11.44140625 30.30078125 C12 33 12 33 11 36 C10.39671875 35.48308594 9.7934375 34.96617188 9.171875 34.43359375 C8.37265625 33.77488281 7.5734375 33.11617187 6.75 32.4375 C5.96109375 31.77621094 5.1721875 31.11492187 4.359375 30.43359375 C2.1700103 28.80280306 2.1700103 28.80280306 -0.03125 29.09375 C-2.36570031 30.16833824 -4.22710708 31.47790055 -6.25 33.0625 C-6.95640625 33.61035156 -7.6628125 34.15820312 -8.390625 34.72265625 C-9.18726563 35.35494141 -9.18726563 35.35494141 -10 36 C-10.66 35.67 -11.32 35.34 -12 35 C-11.566875 33.84371094 -11.566875 33.84371094 -11.125 32.6640625 C-10.75375 31.66117188 -10.3825 30.65828125 -10 29.625 C-9.62875 28.62726563 -9.2575 27.62953125 -8.875 26.6015625 C-7.89373723 24.14151939 -7.89373723 24.14151939 -8 22 C-9.78513689 20.5829027 -11.62901835 19.23915516 -13.5 17.9375 C-15.34867345 16.64669644 -17.18637885 15.33960653 -19 14 C-19 13.67 -19 13.34 -19 13 C-14.05 13 -9.1 13 -4 13 C-3.71125 11.5975 -3.4225 10.195 -3.125 8.75 C-2.46276373 5.53342384 -1.57554035 2.88628401 0 0 Z " fill="#F0F2F5" transform="translate(469,89)"/>
<path d="M0 0 C3.44587588 3.44587588 3.81292163 8.35960275 5 13 C9.95 13 14.9 13 20 13 C16.12038353 16.87961647 13.43416733 19.2157554 9 22 C9.34224609 23.13888672 9.34224609 23.13888672 9.69140625 24.30078125 C10.12259766 25.79158203 10.12259766 25.79158203 10.5625 27.3125 C10.85253906 28.29863281 11.14257812 29.28476563 11.44140625 30.30078125 C12 33 12 33 11 36 C10.39671875 35.48308594 9.7934375 34.96617188 9.171875 34.43359375 C8.37265625 33.77488281 7.5734375 33.11617187 6.75 32.4375 C5.96109375 31.77621094 5.1721875 31.11492187 4.359375 30.43359375 C2.1700103 28.80280306 2.1700103 28.80280306 -0.03125 29.09375 C-2.36570031 30.16833824 -4.22710708 31.47790055 -6.25 33.0625 C-6.95640625 33.61035156 -7.6628125 34.15820312 -8.390625 34.72265625 C-9.18726563 35.35494141 -9.18726563 35.35494141 -10 36 C-10.66 35.67 -11.32 35.34 -12 35 C-11.566875 33.84371094 -11.566875 33.84371094 -11.125 32.6640625 C-10.75375 31.66117188 -10.3825 30.65828125 -10 29.625 C-9.62875 28.62726563 -9.2575 27.62953125 -8.875 26.6015625 C-7.89373723 24.14151939 -7.89373723 24.14151939 -8 22 C-9.78513689 20.5829027 -11.62901835 19.23915516 -13.5 17.9375 C-15.34867345 16.64669644 -17.18637885 15.33960653 -19 14 C-19 13.67 -19 13.34 -19 13 C-14.05 13 -9.1 13 -4 13 C-3.71125 11.5975 -3.4225 10.195 -3.125 8.75 C-2.46276373 5.53342384 -1.57554035 2.88628401 0 0 Z " fill="#F0F2F5" transform="translate(213,89)"/>
<path d="M0 0 C3.44587588 3.44587588 3.81292163 8.35960275 5 13 C9.95 13 14.9 13 20 13 C16.40360547 16.59639453 13.13521513 19.13715875 9 22 C9.34224609 23.13888672 9.34224609 23.13888672 9.69140625 24.30078125 C10.12259766 25.79158203 10.12259766 25.79158203 10.5625 27.3125 C10.85253906 28.29863281 11.14257812 29.28476563 11.44140625 30.30078125 C12 33 12 33 11 36 C10.39671875 35.48308594 9.7934375 34.96617187 9.171875 34.43359375 C8.37265625 33.77488281 7.5734375 33.11617187 6.75 32.4375 C5.96109375 31.77621094 5.1721875 31.11492187 4.359375 30.43359375 C2.1700103 28.80280306 2.1700103 28.80280306 -0.03125 29.09375 C-2.36570031 30.16833824 -4.22710708 31.47790055 -6.25 33.0625 C-6.95640625 33.61035156 -7.6628125 34.15820312 -8.390625 34.72265625 C-9.18726563 35.35494141 -9.18726563 35.35494141 -10 36 C-10.66 35.67 -11.32 35.34 -12 35 C-11.7834375 34.40832031 -11.566875 33.81664062 -11.34375 33.20703125 C-11.0653125 32.41683594 -10.786875 31.62664062 -10.5 30.8125 C-10.2215625 30.03519531 -9.943125 29.25789063 -9.65625 28.45703125 C-8.92212051 25.70841548 -8.52910124 23.82086471 -9 21 C-11.18052749 18.90548287 -11.18052749 18.90548287 -14 17.25 C-15.67512011 16.17978437 -17.34422476 15.09990784 -19 14 C-19 13.67 -19 13.34 -19 13 C-14.05 13 -9.1 13 -4 13 C-3.71125 11.5975 -3.4225 10.195 -3.125 8.75 C-2.46276373 5.53342384 -1.57554035 2.88628401 0 0 Z " fill="#F1F3F6" transform="translate(341,198)"/>
<path d="M0 0 C3.44587588 3.44587588 3.81292163 8.35960275 5 13 C9.95 13 14.9 13 20 13 C16.40360547 16.59639453 13.13521513 19.13715875 9 22 C9.34224609 23.13888672 9.34224609 23.13888672 9.69140625 24.30078125 C10.12259766 25.79158203 10.12259766 25.79158203 10.5625 27.3125 C10.85253906 28.29863281 11.14257812 29.28476563 11.44140625 30.30078125 C12 33 12 33 11 36 C10.39671875 35.48308594 9.7934375 34.96617187 9.171875 34.43359375 C8.37265625 33.77488281 7.5734375 33.11617187 6.75 32.4375 C5.96109375 31.77621094 5.1721875 31.11492187 4.359375 30.43359375 C2.1700103 28.80280306 2.1700103 28.80280306 -0.03125 29.09375 C-2.36570031 30.16833824 -4.22710708 31.47790055 -6.25 33.0625 C-6.95640625 33.61035156 -7.6628125 34.15820312 -8.390625 34.72265625 C-9.18726562 35.35494141 -9.18726562 35.35494141 -10 36 C-10.66 35.67 -11.32 35.34 -12 35 C-11.7834375 34.40832031 -11.566875 33.81664062 -11.34375 33.20703125 C-11.0653125 32.41683594 -10.786875 31.62664062 -10.5 30.8125 C-10.2215625 30.03519531 -9.943125 29.25789063 -9.65625 28.45703125 C-8.92212051 25.70841548 -8.52910124 23.82086471 -9 21 C-11.18052749 18.90548287 -11.18052749 18.90548287 -14 17.25 C-15.67512011 16.17978437 -17.34422476 15.09990784 -19 14 C-19 13.67 -19 13.34 -19 13 C-14.05 13 -9.1 13 -4 13 C-3.71125 11.5975 -3.4225 10.195 -3.125 8.75 C-2.46276373 5.53342384 -1.57554035 2.88628401 0 0 Z " fill="#F1F3F6" transform="translate(85,198)"/>
<path d="M0 0 C2 1 2 1 2.8515625 2.9609375 C3.10679687 3.75757813 3.36203125 4.55421875 3.625 5.375 C4.01558594 6.56222656 4.01558594 6.56222656 4.4140625 7.7734375 C5 10 5 10 5 13 C9.95 13 14.9 13 20 13 C16.12038353 16.87961647 13.43416733 19.2157554 9 22 C9.2165625 22.68707031 9.433125 23.37414062 9.65625 24.08203125 C9.9346875 24.98308594 10.213125 25.88414062 10.5 26.8125 C10.7784375 27.70582031 11.056875 28.59914062 11.34375 29.51953125 C12 32 12 32 12 35 C8.92789731 33.94670765 6.93303916 32.9428383 4.4375 30.8125 C2.2539443 28.76145616 2.2539443 28.76145616 0.14453125 29.1953125 C-2.44200789 30.1658536 -4.47866855 31.49260914 -6.75 33.0625 C-7.54921875 33.61035156 -8.3484375 34.15820312 -9.171875 34.72265625 C-10.07679688 35.35494141 -10.07679688 35.35494141 -11 36 C-10.86722656 35.40832031 -10.73445313 34.81664062 -10.59765625 34.20703125 C-10.42105469 33.41683594 -10.24445313 32.62664062 -10.0625 31.8125 C-9.88847656 31.03519531 -9.71445312 30.25789063 -9.53515625 29.45703125 C-8.99488667 26.97652348 -8.49105628 24.49067284 -8 22 C-8.7940625 21.43410156 -9.588125 20.86820313 -10.40625 20.28515625 C-11.4271875 19.55167969 -12.448125 18.81820312 -13.5 18.0625 C-14.5209375 17.33160156 -15.541875 16.60070312 -16.59375 15.84765625 C-17.3878125 15.23792969 -18.181875 14.62820312 -19 14 C-19 13.67 -19 13.34 -19 13 C-14.05 13 -9.1 13 -4 13 C-3.525625 11.22625 -3.05125 9.4525 -2.5625 7.625 C-1.125 2.25 -1.125 2.25 0 0 Z " fill="#F2F4F6" transform="translate(426,198)"/>
<path d="M0 0 C2 1 2 1 2.8515625 2.9609375 C3.10679687 3.75757813 3.36203125 4.55421875 3.625 5.375 C4.01558594 6.56222656 4.01558594 6.56222656 4.4140625 7.7734375 C5 10 5 10 5 13 C9.95 13 14.9 13 20 13 C16.12038353 16.87961647 13.43416733 19.2157554 9 22 C9.2165625 22.68707031 9.433125 23.37414062 9.65625 24.08203125 C9.9346875 24.98308594 10.213125 25.88414062 10.5 26.8125 C10.7784375 27.70582031 11.056875 28.59914062 11.34375 29.51953125 C12 32 12 32 12 35 C8.92789731 33.94670765 6.93303916 32.9428383 4.4375 30.8125 C2.2539443 28.76145616 2.2539443 28.76145616 0.14453125 29.1953125 C-2.44200789 30.1658536 -4.47866855 31.49260914 -6.75 33.0625 C-7.54921875 33.61035156 -8.3484375 34.15820312 -9.171875 34.72265625 C-10.07679688 35.35494141 -10.07679688 35.35494141 -11 36 C-10.86722656 35.40832031 -10.73445312 34.81664062 -10.59765625 34.20703125 C-10.42105469 33.41683594 -10.24445313 32.62664062 -10.0625 31.8125 C-9.88847656 31.03519531 -9.71445313 30.25789063 -9.53515625 29.45703125 C-8.99488667 26.97652348 -8.49105628 24.49067284 -8 22 C-8.7940625 21.43410156 -9.588125 20.86820313 -10.40625 20.28515625 C-11.4271875 19.55167969 -12.448125 18.81820312 -13.5 18.0625 C-14.5209375 17.33160156 -15.541875 16.60070312 -16.59375 15.84765625 C-17.3878125 15.23792969 -18.181875 14.62820312 -19 14 C-19 13.67 -19 13.34 -19 13 C-14.05 13 -9.1 13 -4 13 C-3.525625 11.22625 -3.05125 9.4525 -2.5625 7.625 C-1.125 2.25 -1.125 2.25 0 0 Z " fill="#F2F4F6" transform="translate(170,198)"/>
<path d="M0 0 C0.66 0 1.32 0 2 0 C2.50757862 1.41396902 3.00574925 2.83131729 3.5 4.25 C3.7784375 5.03890625 4.056875 5.8278125 4.34375 6.640625 C5 9 5 9 5 13 C9.95 13 14.9 13 20 13 C13.9 19.1 13.9 19.1 11 21 C10.34 21 9.68 21 9 21 C9.30035156 21.91523438 9.60070312 22.83046875 9.91015625 23.7734375 C10.29042969 24.96195313 10.67070312 26.15046875 11.0625 27.375 C11.44535156 28.55835938 11.82820313 29.74171875 12.22265625 30.9609375 C13 34 13 34 12 36 C11.33613281 35.47148437 10.67226563 34.94296875 9.98828125 34.3984375 C9.10527344 33.73070312 8.22226562 33.06296875 7.3125 32.375 C6.44238281 31.70210937 5.57226562 31.02921875 4.67578125 30.3359375 C2.0867506 28.68460426 2.0867506 28.68460426 -0.59375 29.625 C-2.76815952 30.86751973 -4.80523847 32.12939337 -6.8125 33.625 C-7.864375 34.40875 -8.91625 35.1925 -10 36 C-11.57156655 32.8568669 -10.11705576 30.634536 -9.0625 27.375 C-8.68222656 26.18648437 -8.30195313 24.99796875 -7.91015625 23.7734375 C-7.60980469 22.85820312 -7.30945313 21.94296875 -7 21 C-7.87398437 20.58427734 -7.87398437 20.58427734 -8.765625 20.16015625 C-10.90110897 19.05134726 -12.79545138 17.83658929 -14.75 16.4375 C-15.36359375 16.00308594 -15.9771875 15.56867188 -16.609375 15.12109375 C-17.06828125 14.75113281 -17.5271875 14.38117188 -18 14 C-18 13.67 -18 13.34 -18 13 C-13.05 13 -8.1 13 -3 13 C-2.67 10.69 -2.34 8.38 -2 6 C-1.37743972 3.98583438 -0.72433347 1.97984481 0 0 Z " fill="#F2F4F6" transform="translate(255,198)"/>
<path d="M0 0 C3.44587588 3.44587588 3.81292163 8.35960275 5 13 C9.62 13 14.24 13 19 13 C15.66666667 16.33333333 12.33333333 19.66666667 9 23 C9.22816406 23.68707031 9.45632813 24.37414062 9.69140625 25.08203125 C9.97886719 25.98308594 10.26632812 26.88414063 10.5625 27.8125 C10.85253906 28.70582031 11.14257812 29.59914063 11.44140625 30.51953125 C12 33 12 33 11 36 C10.39671875 35.48308594 9.7934375 34.96617188 9.171875 34.43359375 C8.37265625 33.77488281 7.5734375 33.11617187 6.75 32.4375 C5.96109375 31.77621094 5.1721875 31.11492187 4.359375 30.43359375 C2.1700103 28.80280306 2.1700103 28.80280306 -0.03125 29.09375 C-2.36570031 30.16833824 -4.22710708 31.47790055 -6.25 33.0625 C-6.95640625 33.61035156 -7.6628125 34.15820312 -8.390625 34.72265625 C-9.18726563 35.35494141 -9.18726563 35.35494141 -10 36 C-10.66 35.67 -11.32 35.34 -12 35 C-11.67515625 33.98679687 -11.67515625 33.98679687 -11.34375 32.953125 C-11.0653125 32.06109375 -10.786875 31.1690625 -10.5 30.25 C-10.2215625 29.36828125 -9.943125 28.4865625 -9.65625 27.578125 C-8.83554715 24.79732471 -8.83554715 24.79732471 -9 21 C-11.20351817 19.00936177 -11.20351817 19.00936177 -14 17.3125 C-15.67731397 16.22457552 -17.34704976 15.1245965 -19 14 C-19 13.67 -19 13.34 -19 13 C-14.05 13 -9.1 13 -4 13 C-3.71125 11.5975 -3.4225 10.195 -3.125 8.75 C-2.46276373 5.53342384 -1.57554035 2.88628401 0 0 Z " fill="#F3F5F7" transform="translate(341,53)"/>
<path d="M0 0 C3.44587588 3.44587588 3.81292163 8.35960275 5 13 C9.62 13 14.24 13 19 13 C15.66666667 16.33333333 12.33333333 19.66666667 9 23 C9.22816406 23.68707031 9.45632812 24.37414062 9.69140625 25.08203125 C9.97886719 25.98308594 10.26632813 26.88414063 10.5625 27.8125 C10.85253906 28.70582031 11.14257812 29.59914063 11.44140625 30.51953125 C12 33 12 33 11 36 C10.39671875 35.48308594 9.7934375 34.96617188 9.171875 34.43359375 C8.37265625 33.77488281 7.5734375 33.11617187 6.75 32.4375 C5.96109375 31.77621094 5.1721875 31.11492187 4.359375 30.43359375 C2.1700103 28.80280306 2.1700103 28.80280306 -0.03125 29.09375 C-2.36570031 30.16833824 -4.22710708 31.47790055 -6.25 33.0625 C-6.95640625 33.61035156 -7.6628125 34.15820312 -8.390625 34.72265625 C-9.18726562 35.35494141 -9.18726562 35.35494141 -10 36 C-10.66 35.67 -11.32 35.34 -12 35 C-11.67515625 33.98679687 -11.67515625 33.98679687 -11.34375 32.953125 C-11.0653125 32.06109375 -10.786875 31.1690625 -10.5 30.25 C-10.2215625 29.36828125 -9.943125 28.4865625 -9.65625 27.578125 C-8.83554715 24.79732471 -8.83554715 24.79732471 -9 21 C-11.20351817 19.00936177 -11.20351817 19.00936177 -14 17.3125 C-15.67731397 16.22457552 -17.34704976 15.1245965 -19 14 C-19 13.67 -19 13.34 -19 13 C-14.05 13 -9.1 13 -4 13 C-3.71125 11.5975 -3.4225 10.195 -3.125 8.75 C-2.46276373 5.53342384 -1.57554035 2.88628401 0 0 Z " fill="#F3F5F7" transform="translate(85,53)"/>
<path d="M0 0 C2.18614424 2.18614424 2.68256535 3.53879949 3.625 6.4375 C4.01558594 7.61119141 4.01558594 7.61119141 4.4140625 8.80859375 C5 11 5 11 5 14 C9.95 14 14.9 14 20 14 C16.72724974 17.27275026 13.85411644 19.54738045 10 22 C10.64187918 27.13503344 11.68272247 31.9943454 13 37 C12.25234375 36.48308594 11.5046875 35.96617187 10.734375 35.43359375 C9.74953125 34.77488281 8.7646875 34.11617187 7.75 33.4375 C6.77546875 32.77621094 5.8009375 32.11492187 4.796875 31.43359375 C2.21243722 29.8172358 2.21243722 29.8172358 -0.09375 30.09375 C-2.38630337 31.18365242 -4.25164888 32.49712496 -6.25 34.0625 C-6.95640625 34.61035156 -7.6628125 35.15820312 -8.390625 35.72265625 C-9.18726563 36.35494141 -9.18726563 36.35494141 -10 37 C-10.66 36.67 -11.32 36.34 -12 36 C-10.35 31.38 -8.7 26.76 -7 22 C-8.32 21.34 -9.64 20.68 -11 20 C-12.26796225 19.17273195 -13.51892245 18.31872004 -14.75 17.4375 C-15.36359375 17.00308594 -15.9771875 16.56867188 -16.609375 16.12109375 C-17.06828125 15.75113281 -17.5271875 15.38117188 -18 15 C-18 14.67 -18 14.34 -18 14 C-13.38 14 -8.76 14 -4 14 C-3.525625 12.246875 -3.05125 10.49375 -2.5625 8.6875 C-1.77029018 5.75976807 -0.95928532 2.87785595 0 0 Z " fill="#F3F5F7" transform="translate(298,161)"/>
<path d="M0 0 C2.18614424 2.18614424 2.68256535 3.53879949 3.625 6.4375 C4.01558594 7.61119141 4.01558594 7.61119141 4.4140625 8.80859375 C5 11 5 11 5 14 C9.95 14 14.9 14 20 14 C16.72724974 17.27275026 13.85411644 19.54738045 10 22 C10.64187918 27.13503344 11.68272247 31.9943454 13 37 C12.25234375 36.48308594 11.5046875 35.96617187 10.734375 35.43359375 C9.74953125 34.77488281 8.7646875 34.11617187 7.75 33.4375 C6.77546875 32.77621094 5.8009375 32.11492187 4.796875 31.43359375 C2.21243722 29.8172358 2.21243722 29.8172358 -0.09375 30.09375 C-2.38630337 31.18365242 -4.25164888 32.49712496 -6.25 34.0625 C-6.95640625 34.61035156 -7.6628125 35.15820312 -8.390625 35.72265625 C-9.18726563 36.35494141 -9.18726563 36.35494141 -10 37 C-10.66 36.67 -11.32 36.34 -12 36 C-10.35 31.38 -8.7 26.76 -7 22 C-8.32 21.34 -9.64 20.68 -11 20 C-12.26796225 19.17273195 -13.51892245 18.31872004 -14.75 17.4375 C-15.36359375 17.00308594 -15.9771875 16.56867188 -16.609375 16.12109375 C-17.06828125 15.75113281 -17.5271875 15.38117188 -18 15 C-18 14.67 -18 14.34 -18 14 C-13.38 14 -8.76 14 -4 14 C-3.525625 12.246875 -3.05125 10.49375 -2.5625 8.6875 C-1.77029018 5.75976807 -0.95928532 2.87785595 0 0 Z " fill="#F3F5F7" transform="translate(42,161)"/>
<path d="M0 0 C2.18614424 2.18614424 2.68256535 3.53879949 3.625 6.4375 C4.01558594 7.61119141 4.01558594 7.61119141 4.4140625 8.80859375 C5 11 5 11 5 14 C9.95 14 14.9 14 20 14 C16.40360547 17.59639453 13.13521513 20.13715875 9 23 C9.2165625 23.68707031 9.433125 24.37414062 9.65625 25.08203125 C9.9346875 25.98308594 10.213125 26.88414063 10.5 27.8125 C10.7784375 28.70582031 11.056875 29.59914063 11.34375 30.51953125 C12 33 12 33 12 36 C9.40899946 34.8041536 7.32633188 33.50878367 5 31.8125 C2.30993948 29.77615888 2.30993948 29.77615888 0.109375 30.1953125 C-2.45490384 31.17353739 -4.49346301 32.50283473 -6.75 34.0625 C-7.54921875 34.61035156 -8.3484375 35.15820312 -9.171875 35.72265625 C-10.07679688 36.35494141 -10.07679688 36.35494141 -11 37 C-10.68872484 35.41642541 -10.37592711 33.83315007 -10.0625 32.25 C-9.80146484 30.92742187 -9.80146484 30.92742187 -9.53515625 29.578125 C-9.07631512 27.36764947 -8.56663926 25.18487932 -8 23 C-8.721875 22.43410156 -9.44375 21.86820313 -10.1875 21.28515625 C-11.115625 20.55167969 -12.04375 19.81820312 -13 19.0625 C-13.928125 18.33160156 -14.85625 17.60070312 -15.8125 16.84765625 C-16.534375 16.23792969 -17.25625 15.62820312 -18 15 C-18 14.67 -18 14.34 -18 14 C-13.38 14 -8.76 14 -4 14 C-3.525625 12.246875 -3.05125 10.49375 -2.5625 8.6875 C-1.77029018 5.75976807 -0.95928532 2.87785595 0 0 Z " fill="#F3F5F7" transform="translate(426,52)"/>
<path d="M0 0 C2.18614424 2.18614424 2.68256535 3.53879949 3.625 6.4375 C4.01558594 7.61119141 4.01558594 7.61119141 4.4140625 8.80859375 C5 11 5 11 5 14 C9.95 14 14.9 14 20 14 C16.40360547 17.59639453 13.13521513 20.13715875 9 23 C9.2165625 23.68707031 9.433125 24.37414062 9.65625 25.08203125 C9.9346875 25.98308594 10.213125 26.88414063 10.5 27.8125 C10.7784375 28.70582031 11.056875 29.59914063 11.34375 30.51953125 C12 33 12 33 12 36 C9.40899946 34.8041536 7.32633188 33.50878367 5 31.8125 C2.30993948 29.77615888 2.30993948 29.77615888 0.109375 30.1953125 C-2.45490384 31.17353739 -4.49346301 32.50283473 -6.75 34.0625 C-7.54921875 34.61035156 -8.3484375 35.15820312 -9.171875 35.72265625 C-10.07679688 36.35494141 -10.07679688 36.35494141 -11 37 C-10.68872484 35.41642541 -10.37592711 33.83315007 -10.0625 32.25 C-9.80146484 30.92742187 -9.80146484 30.92742187 -9.53515625 29.578125 C-9.07631512 27.36764947 -8.56663926 25.18487932 -8 23 C-8.721875 22.43410156 -9.44375 21.86820313 -10.1875 21.28515625 C-11.115625 20.55167969 -12.04375 19.81820312 -13 19.0625 C-13.928125 18.33160156 -14.85625 17.60070312 -15.8125 16.84765625 C-16.534375 16.23792969 -17.25625 15.62820312 -18 15 C-18 14.67 -18 14.34 -18 14 C-13.38 14 -8.76 14 -4 14 C-3.525625 12.246875 -3.05125 10.49375 -2.5625 8.6875 C-1.77029018 5.75976807 -0.95928532 2.87785595 0 0 Z " fill="#F3F5F7" transform="translate(170,52)"/>
<path d="M0 0 C2.91562667 4.37344001 3.68432959 8.91672797 5 14 C9.62 14 14.24 14 19 14 C13.35475578 19.80205656 13.35475578 19.80205656 10 22 C9.34 22 8.68 22 8 22 C8.28875 22.84304688 8.5775 23.68609375 8.875 24.5546875 C9.24625 25.65039062 9.6175 26.74609375 10 27.875 C10.556875 29.51082031 10.556875 29.51082031 11.125 31.1796875 C12 34 12 34 12 36 C8.92789731 34.94670765 6.93303916 33.9428383 4.4375 31.8125 C2.24344929 29.74800794 2.24344929 29.74800794 0.07421875 30.2265625 C-2.16955546 31.06322407 -3.73458317 32.10096628 -5.625 33.5625 C-8.78753541 36 -8.78753541 36 -11 36 C-10.855625 35.32453125 -10.71125 34.6490625 -10.5625 33.953125 C-10.376875 33.06109375 -10.19125 32.1690625 -10 31.25 C-9.814375 30.36828125 -9.62875 29.4865625 -9.4375 28.578125 C-8.88846325 25.77856035 -8.88846325 25.77856035 -9 22 C-11.20351817 20.00936177 -11.20351817 20.00936177 -14 18.3125 C-15.67731397 17.22457552 -17.34704976 16.1245965 -19 15 C-19 14.67 -19 14.34 -19 14 C-14.05 14 -9.1 14 -4 14 C-3.71125 12.618125 -3.4225 11.23625 -3.125 9.8125 C-2.36695066 6.3796194 -1.45231137 3.21583233 0 0 Z " fill="#F4F6F8" transform="translate(469,306)"/>
<path d="M0 0 C2.91562667 4.37344001 3.68432959 8.91672797 5 14 C9.62 14 14.24 14 19 14 C13.35475578 19.80205656 13.35475578 19.80205656 10 22 C9.34 22 8.68 22 8 22 C8.28875 22.84304688 8.5775 23.68609375 8.875 24.5546875 C9.24625 25.65039062 9.6175 26.74609375 10 27.875 C10.556875 29.51082031 10.556875 29.51082031 11.125 31.1796875 C12 34 12 34 12 36 C8.92789731 34.94670765 6.93303916 33.9428383 4.4375 31.8125 C2.24344929 29.74800794 2.24344929 29.74800794 0.07421875 30.2265625 C-2.16955546 31.06322407 -3.73458317 32.10096628 -5.625 33.5625 C-8.78753541 36 -8.78753541 36 -11 36 C-10.855625 35.32453125 -10.71125 34.6490625 -10.5625 33.953125 C-10.376875 33.06109375 -10.19125 32.1690625 -10 31.25 C-9.814375 30.36828125 -9.62875 29.4865625 -9.4375 28.578125 C-8.88846325 25.77856035 -8.88846325 25.77856035 -9 22 C-11.20351817 20.00936177 -11.20351817 20.00936177 -14 18.3125 C-15.67731397 17.22457552 -17.34704976 16.1245965 -19 15 C-19 14.67 -19 14.34 -19 14 C-14.05 14 -9.1 14 -4 14 C-3.71125 12.618125 -3.4225 11.23625 -3.125 9.8125 C-2.36695066 6.3796194 -1.45231137 3.21583233 0 0 Z " fill="#F4F6F8" transform="translate(213,306)"/>
<path d="M0 0 C2.91562667 4.37344001 3.68432959 8.91672797 5 14 C9.62 14 14.24 14 19 14 C13.35475578 19.80205656 13.35475578 19.80205656 10 22 C9.34 22 8.68 22 8 22 C8.28875 22.75925781 8.5775 23.51851562 8.875 24.30078125 C9.24625 25.29464844 9.6175 26.28851563 10 27.3125 C10.37125 28.29863281 10.7425 29.28476563 11.125 30.30078125 C12 33 12 33 12 36 C9.4140158 34.80646883 7.368576 33.52979064 5.0625 31.8125 C2.24711199 29.74809553 2.24711199 29.74809553 -0.390625 30.1953125 C-3.29265131 31.09024876 -5.33102155 32.32176138 -7.8125 34.0625 C-8.60269531 34.61035156 -9.39289063 35.15820312 -10.20703125 35.72265625 C-11.09455078 36.35494141 -11.09455078 36.35494141 -12 37 C-11.65775391 35.89591797 -11.65775391 35.89591797 -11.30859375 34.76953125 C-10.87740234 33.30580078 -10.87740234 33.30580078 -10.4375 31.8125 C-10.14746094 30.84957031 -9.85742188 29.88664062 -9.55859375 28.89453125 C-8.95255912 25.75416997 -8.88052975 23.99358338 -10 21 C-12.04503714 19.15149391 -12.04503714 19.15149391 -14.5625 17.75 C-16.05119346 16.84888758 -17.53322436 15.93636586 -19 15 C-19 14.67 -19 14.34 -19 14 C-14.05 14 -9.1 14 -4 14 C-3.71125 12.618125 -3.4225 11.23625 -3.125 9.8125 C-2.36695066 6.3796194 -1.45231137 3.21583233 0 0 Z " fill="#F4F6F8" transform="translate(469,161)"/>
<path d="M0 0 C2.91562667 4.37344001 3.68432959 8.91672797 5 14 C9.62 14 14.24 14 19 14 C13.35475578 19.80205656 13.35475578 19.80205656 10 22 C9.34 22 8.68 22 8 22 C8.28875 22.75925781 8.5775 23.51851562 8.875 24.30078125 C9.24625 25.29464844 9.6175 26.28851563 10 27.3125 C10.37125 28.29863281 10.7425 29.28476563 11.125 30.30078125 C12 33 12 33 12 36 C9.4140158 34.80646883 7.368576 33.52979064 5.0625 31.8125 C2.24711199 29.74809553 2.24711199 29.74809553 -0.390625 30.1953125 C-3.29265131 31.09024876 -5.33102155 32.32176138 -7.8125 34.0625 C-8.60269531 34.61035156 -9.39289063 35.15820312 -10.20703125 35.72265625 C-11.09455078 36.35494141 -11.09455078 36.35494141 -12 37 C-11.65775391 35.89591797 -11.65775391 35.89591797 -11.30859375 34.76953125 C-10.87740234 33.30580078 -10.87740234 33.30580078 -10.4375 31.8125 C-10.14746094 30.84957031 -9.85742188 29.88664062 -9.55859375 28.89453125 C-8.95255912 25.75416997 -8.88052975 23.99358338 -10 21 C-12.04503714 19.15149391 -12.04503714 19.15149391 -14.5625 17.75 C-16.05119346 16.84888758 -17.53322436 15.93636586 -19 15 C-19 14.67 -19 14.34 -19 14 C-14.05 14 -9.1 14 -4 14 C-3.71125 12.618125 -3.4225 11.23625 -3.125 9.8125 C-2.36695066 6.3796194 -1.45231137 3.21583233 0 0 Z " fill="#F4F6F8" transform="translate(213,161)"/>
<path d="M0 0 C0.66 0 1.32 0 2 0 C2.50757862 1.41396902 3.00574925 2.83131729 3.5 4.25 C3.7784375 5.03890625 4.056875 5.8278125 4.34375 6.640625 C5 9 5 9 5 13 C9.95 13 14.9 13 20 13 C13.9 19.1 13.9 19.1 11 21 C10.34 21 9.68 21 9 21 C9.30035156 21.91523437 9.60070312 22.83046875 9.91015625 23.7734375 C10.29042969 24.96195313 10.67070312 26.15046875 11.0625 27.375 C11.44535156 28.55835937 11.82820313 29.74171875 12.22265625 30.9609375 C13 34 13 34 12 36 C11.33613281 35.47148438 10.67226563 34.94296875 9.98828125 34.3984375 C9.10527344 33.73070312 8.22226562 33.06296875 7.3125 32.375 C6.44238281 31.70210937 5.57226562 31.02921875 4.67578125 30.3359375 C2.09095331 28.68552078 2.09095331 28.68552078 -0.5625 29.625 C-2.84887508 30.91475004 -5.10546573 32.2035203 -7.3125 33.625 C-8.00988281 34.07101563 -8.70726562 34.51703125 -9.42578125 34.9765625 C-9.94527344 35.31429687 -10.46476563 35.65203125 -11 36 C-10.52229477 34.06213915 -10.04278429 32.12472326 -9.5625 30.1875 C-9.29566406 29.10855469 -9.02882812 28.02960938 -8.75390625 26.91796875 C-8.23922588 24.9259157 -7.65062825 22.95188476 -7 21 C-7.515625 20.773125 -8.03125 20.54625 -8.5625 20.3125 C-11.90966116 18.51018245 -15.03890492 16.38717496 -18 14 C-18 13.67 -18 13.34 -18 13 C-13.05 13 -8.1 13 -3 13 C-2.67 10.69 -2.34 8.38 -2 6 C-1.37743972 3.98583438 -0.72433347 1.97984481 0 0 Z " fill="#F4F5F8" transform="translate(255,53)"/>
<path d="M0 0 C2.18614424 2.18614424 2.68256535 3.53879949 3.625 6.4375 C4.01558594 7.61119141 4.01558594 7.61119141 4.4140625 8.80859375 C5 11 5 11 5 14 C9.95 14 14.9 14 20 14 C16.40360547 17.59639453 13.13521513 20.13715875 9 23 C9.2165625 23.68707031 9.433125 24.37414062 9.65625 25.08203125 C9.9346875 25.98308594 10.213125 26.88414062 10.5 27.8125 C10.7784375 28.70582031 11.056875 29.59914063 11.34375 30.51953125 C12 33 12 33 12 36 C9.40899946 34.8041536 7.32633188 33.50878367 5 31.8125 C2.30993948 29.77615888 2.30993948 29.77615888 0.109375 30.1953125 C-2.45490384 31.17353739 -4.49346301 32.50283473 -6.75 34.0625 C-7.54921875 34.61035156 -8.3484375 35.15820312 -9.171875 35.72265625 C-10.07679688 36.35494141 -10.07679688 36.35494141 -11 37 C-9.07289294 26.44191344 -9.07289294 26.44191344 -7 22 C-7.70125 21.773125 -8.4025 21.54625 -9.125 21.3125 C-12.71586536 19.6731919 -15.07780486 17.65036303 -18 15 C-18 14.67 -18 14.34 -18 14 C-13.38 14 -8.76 14 -4 14 C-3.525625 12.246875 -3.05125 10.49375 -2.5625 8.6875 C-1.77029018 5.75976807 -0.95928532 2.87785595 0 0 Z " fill="#F4F6F8" transform="translate(298,306)"/>
<path d="M0 0 C2.18614424 2.18614424 2.68256535 3.53879949 3.625 6.4375 C4.01558594 7.61119141 4.01558594 7.61119141 4.4140625 8.80859375 C5 11 5 11 5 14 C9.95 14 14.9 14 20 14 C16.40360547 17.59639453 13.13521513 20.13715875 9 23 C9.2165625 23.68707031 9.433125 24.37414062 9.65625 25.08203125 C9.9346875 25.98308594 10.213125 26.88414062 10.5 27.8125 C10.7784375 28.70582031 11.056875 29.59914063 11.34375 30.51953125 C12 33 12 33 12 36 C9.40899946 34.8041536 7.32633188 33.50878367 5 31.8125 C2.30993948 29.77615888 2.30993948 29.77615888 0.109375 30.1953125 C-2.45490384 31.17353739 -4.49346301 32.50283473 -6.75 34.0625 C-7.54921875 34.61035156 -8.3484375 35.15820312 -9.171875 35.72265625 C-10.07679687 36.35494141 -10.07679687 36.35494141 -11 37 C-9.07289294 26.44191344 -9.07289294 26.44191344 -7 22 C-7.70125 21.773125 -8.4025 21.54625 -9.125 21.3125 C-12.71586536 19.6731919 -15.07780486 17.65036303 -18 15 C-18 14.67 -18 14.34 -18 14 C-13.38 14 -8.76 14 -4 14 C-3.525625 12.246875 -3.05125 10.49375 -2.5625 8.6875 C-1.77029018 5.75976807 -0.95928532 2.87785595 0 0 Z " fill="#F4F6F8" transform="translate(42,306)"/>
<path d="M0 0 C0.66 0 1.32 0 2 0 C3.32 3.96 4.64 7.92 6 12 C12.93 12.495 12.93 12.495 20 13 C16.88983545 16.28788824 13.98381075 18.83735988 10 21 C10.77774134 26.05531868 11.85948394 31.01716284 13 36 C12.40832031 35.57847656 11.81664062 35.15695313 11.20703125 34.72265625 C10.41683594 34.17480469 9.62664062 33.62695312 8.8125 33.0625 C7.64654297 32.24458984 7.64654297 32.24458984 6.45703125 31.41015625 C3.80011013 29.88527784 2.06674302 29.11500286 -1 29 C-3.54110666 30.38613061 -3.54110666 30.38613061 -5.8125 32.4375 C-6.60269531 33.09621094 -7.39289063 33.75492188 -8.20703125 34.43359375 C-8.79871094 34.95050781 -9.39039063 35.46742188 -10 36 C-11.15387657 32.53837028 -10.79998922 31.79997125 -9.5625 28.5 C-8.52423721 25.70646782 -8 24.02090819 -8 21 C-10.2264202 19.11399964 -10.2264202 19.11399964 -13 17.375 C-14.67953625 16.2693053 -16.34990704 15.14917188 -18 14 C-18 13.67 -18 13.34 -18 13 C-13.38 12.67 -8.76 12.34 -4 12 C-2.68 8.04 -1.36 4.08 0 0 Z " fill="#F4F6F8" transform="translate(383,162)"/>
<path d="M0 0 C0.66 0 1.32 0 2 0 C3.32 3.96 4.64 7.92 6 12 C12.93 12.495 12.93 12.495 20 13 C16.88983545 16.28788824 13.98381075 18.83735988 10 21 C10.77774134 26.05531868 11.85948394 31.01716284 13 36 C12.40832031 35.57847656 11.81664062 35.15695313 11.20703125 34.72265625 C10.41683594 34.17480469 9.62664062 33.62695312 8.8125 33.0625 C7.64654297 32.24458984 7.64654297 32.24458984 6.45703125 31.41015625 C3.80011013 29.88527784 2.06674302 29.11500286 -1 29 C-3.54110666 30.38613061 -3.54110666 30.38613061 -5.8125 32.4375 C-6.60269531 33.09621094 -7.39289063 33.75492188 -8.20703125 34.43359375 C-8.79871094 34.95050781 -9.39039062 35.46742188 -10 36 C-11.15387657 32.53837028 -10.79998922 31.79997125 -9.5625 28.5 C-8.52423721 25.70646782 -8 24.02090819 -8 21 C-10.2264202 19.11399964 -10.2264202 19.11399964 -13 17.375 C-14.67953625 16.2693053 -16.34990704 15.14917188 -18 14 C-18 13.67 -18 13.34 -18 13 C-13.38 12.67 -8.76 12.34 -4 12 C-2.68 8.04 -1.36 4.08 0 0 Z " fill="#F4F6F8" transform="translate(127,162)"/>
<path d="M0 0 C0.66 0 1.32 0 2 0 C2.50757862 1.41396902 3.00574925 2.83131729 3.5 4.25 C3.7784375 5.03890625 4.056875 5.8278125 4.34375 6.640625 C5 9 5 9 5 13 C9.95 13 14.9 13 20 13 C13.9 19.1 13.9 19.1 11 21 C10.34 21 9.68 21 9 21 C9.30035156 21.91523438 9.60070312 22.83046875 9.91015625 23.7734375 C10.29042969 24.96195312 10.67070312 26.15046875 11.0625 27.375 C11.44535156 28.55835938 11.82820313 29.74171875 12.22265625 30.9609375 C13 34 13 34 12 36 C11.40832031 35.48308594 10.81664062 34.96617187 10.20703125 34.43359375 C9.41683594 33.77488281 8.62664062 33.11617188 7.8125 32.4375 C6.64654297 31.44556641 6.64654297 31.44556641 5.45703125 30.43359375 C3.11363993 28.77210382 3.11363993 28.77210382 0.5 29.09375 C-2.2717609 30.09851333 -4.40068503 31.3706298 -6.8125 33.0625 C-7.60269531 33.61035156 -8.39289063 34.15820312 -9.20703125 34.72265625 C-10.09455078 35.35494141 -10.09455078 35.35494141 -11 36 C-10.7834375 35.16855469 -10.566875 34.33710938 -10.34375 33.48046875 C-10.0653125 32.39378906 -9.786875 31.30710937 -9.5 30.1875 C-9.08234375 28.56908203 -9.08234375 28.56908203 -8.65625 26.91796875 C-7.89029052 24.01066025 -7.89029052 24.01066025 -8 21 C-10.2264202 19.11399964 -10.2264202 19.11399964 -13 17.375 C-14.67953625 16.2693053 -16.34990704 15.14917188 -18 14 C-18 13.67 -18 13.34 -18 13 C-13.05 13 -8.1 13 -3 13 C-2.67 10.69 -2.34 8.38 -2 6 C-1.37743972 3.98583438 -0.72433347 1.97984481 0 0 Z " fill="#F5F6F8" transform="translate(383,307)"/>
<path d="M0 0 C0.66 0 1.32 0 2 0 C2.50757862 1.41396902 3.00574925 2.83131729 3.5 4.25 C3.7784375 5.03890625 4.056875 5.8278125 4.34375 6.640625 C5 9 5 9 5 13 C9.95 13 14.9 13 20 13 C13.9 19.1 13.9 19.1 11 21 C10.34 21 9.68 21 9 21 C9.30035156 21.91523438 9.60070312 22.83046875 9.91015625 23.7734375 C10.29042969 24.96195312 10.67070312 26.15046875 11.0625 27.375 C11.44535156 28.55835938 11.82820313 29.74171875 12.22265625 30.9609375 C13 34 13 34 12 36 C11.40832031 35.48308594 10.81664062 34.96617187 10.20703125 34.43359375 C9.41683594 33.77488281 8.62664062 33.11617188 7.8125 32.4375 C6.64654297 31.44556641 6.64654297 31.44556641 5.45703125 30.43359375 C3.11363993 28.77210382 3.11363993 28.77210382 0.5 29.09375 C-2.2717609 30.09851333 -4.40068503 31.3706298 -6.8125 33.0625 C-7.60269531 33.61035156 -8.39289063 34.15820312 -9.20703125 34.72265625 C-10.09455078 35.35494141 -10.09455078 35.35494141 -11 36 C-10.7834375 35.16855469 -10.566875 34.33710938 -10.34375 33.48046875 C-10.0653125 32.39378906 -9.786875 31.30710937 -9.5 30.1875 C-9.08234375 28.56908203 -9.08234375 28.56908203 -8.65625 26.91796875 C-7.89029052 24.01066025 -7.89029052 24.01066025 -8 21 C-10.2264202 19.11399964 -10.2264202 19.11399964 -13 17.375 C-14.67953625 16.2693053 -16.34990704 15.14917188 -18 14 C-18 13.67 -18 13.34 -18 13 C-13.05 13 -8.1 13 -3 13 C-2.67 10.69 -2.34 8.38 -2 6 C-1.37743972 3.98583438 -0.72433347 1.97984481 0 0 Z " fill="#F5F6F8" transform="translate(127,307)"/>
<path d="M0 0 C0.66 0 1.32 0 2 0 C3.32 3.96 4.64 7.92 6 12 C12.93 12.495 12.93 12.495 20 13 C16.72724974 16.27275026 13.85411644 18.54738045 10 21 C10.19916016 21.87011719 10.19916016 21.87011719 10.40234375 22.7578125 C11.39704001 27.15770982 12.31368332 31.53894158 13 36 C12.40832031 35.57847656 11.81664062 35.15695313 11.20703125 34.72265625 C10.41683594 34.17480469 9.62664062 33.62695312 8.8125 33.0625 C7.64654297 32.24458984 7.64654297 32.24458984 6.45703125 31.41015625 C3.80011013 29.88527784 2.06674302 29.11500286 -1 29 C-3.54110666 30.38613061 -3.54110666 30.38613061 -5.8125 32.4375 C-6.60269531 33.09621094 -7.39289063 33.75492188 -8.20703125 34.43359375 C-8.79871094 34.95050781 -9.39039063 35.46742187 -10 36 C-11.15387657 32.53837028 -10.79998922 31.79997125 -9.5625 28.5 C-8.52423721 25.70646782 -8 24.02090819 -8 21 C-10.2264202 19.11399964 -10.2264202 19.11399964 -13 17.375 C-14.67953625 16.2693053 -16.34990704 15.14917188 -18 14 C-18 13.67 -18 13.34 -18 13 C-13.38 12.67 -8.76 12.34 -4 12 C-2.68 8.04 -1.36 4.08 0 0 Z " fill="#F4F5F8" transform="translate(383,17)"/>
<path d="M0 0 C0.66 0 1.32 0 2 0 C3.32 3.96 4.64 7.92 6 12 C12.93 12.495 12.93 12.495 20 13 C16.72724974 16.27275026 13.85411644 18.54738045 10 21 C10.19916016 21.87011719 10.19916016 21.87011719 10.40234375 22.7578125 C11.39704001 27.15770982 12.31368332 31.53894158 13 36 C12.40832031 35.57847656 11.81664062 35.15695313 11.20703125 34.72265625 C10.41683594 34.17480469 9.62664062 33.62695312 8.8125 33.0625 C7.64654297 32.24458984 7.64654297 32.24458984 6.45703125 31.41015625 C3.80011013 29.88527784 2.06674302 29.11500286 -1 29 C-3.54110666 30.38613061 -3.54110666 30.38613061 -5.8125 32.4375 C-6.60269531 33.09621094 -7.39289063 33.75492188 -8.20703125 34.43359375 C-8.79871094 34.95050781 -9.39039062 35.46742187 -10 36 C-11.15387657 32.53837028 -10.79998922 31.79997125 -9.5625 28.5 C-8.52423721 25.70646782 -8 24.02090819 -8 21 C-10.2264202 19.11399964 -10.2264202 19.11399964 -13 17.375 C-14.67953625 16.2693053 -16.34990704 15.14917188 -18 14 C-18 13.67 -18 13.34 -18 13 C-13.38 12.67 -8.76 12.34 -4 12 C-2.68 8.04 -1.36 4.08 0 0 Z " fill="#F4F5F8" transform="translate(127,17)"/>
<path d="M0 0 C0.66 0 1.32 0 2 0 C3.32 4.29 4.64 8.58 6 13 C12.93 13.495 12.93 13.495 20 14 C16.72724974 17.27275026 13.85411644 19.54738045 10 22 C10.19916016 22.87011719 10.19916016 22.87011719 10.40234375 23.7578125 C11.39704001 28.15770982 12.31368332 32.53894158 13 37 C12.39671875 36.59007812 11.7934375 36.18015625 11.171875 35.7578125 C10.37265625 35.21898437 9.5734375 34.68015625 8.75 34.125 C7.96109375 33.59132813 7.1721875 33.05765625 6.359375 32.5078125 C3.78934704 30.80732794 3.78934704 30.80732794 0 29 C-3.3 31.64 -6.6 34.28 -10 37 C-11.33844502 32.98466494 -10.09207207 31.07075256 -8.59375 27.25390625 C-7.90053732 24.62243442 -7.86452776 23.47280621 -9 21 C-11.06733305 19.25626954 -11.06733305 19.25626954 -13.5625 17.8125 C-15.05339851 16.89377159 -16.53609176 15.96115188 -18 15 C-18 14.67 -18 14.34 -18 14 C-13.38 13.67 -8.76 13.34 -4 13 C-2.68 8.71 -1.36 4.42 0 0 Z " fill="#F4F6F8" transform="translate(255,270)"/>
<path d="M0 0 C2.91562667 4.37344001 3.68432959 8.91672797 5 14 C9.62 14 14.24 14 19 14 C13.35475578 19.80205656 13.35475578 19.80205656 10 22 C9.34 22 8.68 22 8 22 C8.28875 22.75925781 8.5775 23.51851562 8.875 24.30078125 C9.24625 25.29464844 9.6175 26.28851563 10 27.3125 C10.37125 28.29863281 10.7425 29.28476562 11.125 30.30078125 C12 33 12 33 12 36 C7.79028725 33.97099431 3.94567303 31.49892625 0 29 C-5.445 32.96 -5.445 32.96 -11 37 C-12 35 -12 35 -11.40625 33.01171875 C-11.1071875 32.24472656 -10.808125 31.47773437 -10.5 30.6875 C-9.62002155 28.10127224 -9.00329719 26.04725972 -8.8125 23.3125 C-10.53254561 19.9629375 -13.21270326 18.32947475 -16.28515625 16.234375 C-16.85105469 15.82703125 -17.41695313 15.4196875 -18 15 C-18 14.67 -18 14.34 -18 14 C-13.38 14 -8.76 14 -4 14 C-3.71125 12.618125 -3.4225 11.23625 -3.125 9.8125 C-2.36695066 6.3796194 -1.45231137 3.21583233 0 0 Z " fill="#F5F6F8" transform="translate(469,16)"/>
<path d="M0 0 C2.18614424 2.18614424 2.68256535 3.53879949 3.625 6.4375 C4.01558594 7.61119141 4.01558594 7.61119141 4.4140625 8.80859375 C5 11 5 11 5 14 C9.95 14 14.9 14 20 14 C15 18 15 18 12.125 19.8125 C11.42375 20.534375 10.7225 21.25625 10 22 C10.02126462 25.40614946 10.02126462 25.40614946 11 29 C11.33333333 31.33333333 11.66666667 33.66666667 12 36 C8.59244728 34.07119658 5.25852365 32.1723491 2 30 C-1.17024754 30.34733788 -3.13815248 31.63984917 -5.625 33.5625 C-8.78753541 36 -8.78753541 36 -11 36 C-10.00956295 31.16371695 -9.04301154 26.52381127 -7 22 C-7.515625 21.773125 -8.03125 21.54625 -8.5625 21.3125 C-11.90966116 19.51018245 -15.03890492 17.38717496 -18 15 C-18 14.67 -18 14.34 -18 14 C-13.38 14 -8.76 14 -4 14 C-3.525625 12.246875 -3.05125 10.49375 -2.5625 8.6875 C-1.77029018 5.75976807 -0.95928532 2.87785595 0 0 Z " fill="#F5F6F8" transform="translate(298,16)"/>
<path d="M0 0 C2.91562667 4.37344001 3.68432959 8.91672797 5 14 C9.62 14 14.24 14 19 14 C13.35475578 19.80205656 13.35475578 19.80205656 10 22 C9.34 22 8.68 22 8 22 C8.28875 22.75925781 8.5775 23.51851562 8.875 24.30078125 C9.24625 25.29464844 9.6175 26.28851563 10 27.3125 C10.37125 28.29863281 10.7425 29.28476562 11.125 30.30078125 C12 33 12 33 12 36 C7.79028725 33.97099431 3.94567303 31.49892625 0 29 C-5.445 32.96 -5.445 32.96 -11 37 C-12 35 -12 35 -11.40625 33.01171875 C-11.1071875 32.24472656 -10.808125 31.47773437 -10.5 30.6875 C-9.62002155 28.10127224 -9.00329719 26.04725972 -8.8125 23.3125 C-10.53254561 19.9629375 -13.21270326 18.32947475 -16.28515625 16.234375 C-16.85105469 15.82703125 -17.41695312 15.4196875 -18 15 C-18 14.67 -18 14.34 -18 14 C-13.38 14 -8.76 14 -4 14 C-3.71125 12.618125 -3.4225 11.23625 -3.125 9.8125 C-2.36695066 6.3796194 -1.45231137 3.21583233 0 0 Z " fill="#F5F6F8" transform="translate(213,16)"/>
<path d="M0 0 C2.18614424 2.18614424 2.68256535 3.53879949 3.625 6.4375 C4.01558594 7.61119141 4.01558594 7.61119141 4.4140625 8.80859375 C5 11 5 11 5 14 C9.95 14 14.9 14 20 14 C15 18 15 18 12.125 19.8125 C11.42375 20.534375 10.7225 21.25625 10 22 C10.02126462 25.40614946 10.02126462 25.40614946 11 29 C11.33333333 31.33333333 11.66666667 33.66666667 12 36 C8.59244728 34.07119658 5.25852365 32.1723491 2 30 C-1.17024754 30.34733788 -3.13815248 31.63984917 -5.625 33.5625 C-8.78753541 36 -8.78753541 36 -11 36 C-10.00956295 31.16371695 -9.04301154 26.52381127 -7 22 C-7.515625 21.773125 -8.03125 21.54625 -8.5625 21.3125 C-11.90966116 19.51018245 -15.03890492 17.38717496 -18 15 C-18 14.67 -18 14.34 -18 14 C-13.38 14 -8.76 14 -4 14 C-3.525625 12.246875 -3.05125 10.49375 -2.5625 8.6875 C-1.77029018 5.75976807 -0.95928532 2.87785595 0 0 Z " fill="#F5F6F8" transform="translate(42,16)"/>
<path d="M0 0 C2.91562667 4.37344001 3.68432959 8.91672797 5 14 C9.62 14 14.24 14 19 14 C13.35475578 19.80205656 13.35475578 19.80205656 10 22 C9.34 22 8.68 22 8 22 C8.28875 22.75925781 8.5775 23.51851563 8.875 24.30078125 C9.24625 25.29464844 9.6175 26.28851563 10 27.3125 C10.37125 28.29863281 10.7425 29.28476562 11.125 30.30078125 C12 33 12 33 12 36 C7.79028725 33.97099431 3.94567303 31.49892625 0 29 C-4.95 32.465 -4.95 32.465 -10 36 C-11 32 -11 32 -10 29.0625 C-8.86269122 25.57949188 -8.49684679 24.34034047 -10 21 C-12.01048469 19.25616907 -14.08665156 17.7335311 -16.28515625 16.234375 C-16.85105469 15.82703125 -17.41695313 15.4196875 -18 15 C-18 14.67 -18 14.34 -18 14 C-13.38 14 -8.76 14 -4 14 C-3.71125 12.618125 -3.4225 11.23625 -3.125 9.8125 C-2.36695066 6.3796194 -1.45231137 3.21583233 0 0 Z " fill="#F5F6F8" transform="translate(341,270)"/>
<path d="M0 0 C2.91562667 4.37344001 3.68432959 8.91672797 5 14 C9.62 14 14.24 14 19 14 C13.35475578 19.80205656 13.35475578 19.80205656 10 22 C9.34 22 8.68 22 8 22 C8.28875 22.75925781 8.5775 23.51851563 8.875 24.30078125 C9.24625 25.29464844 9.6175 26.28851563 10 27.3125 C10.37125 28.29863281 10.7425 29.28476562 11.125 30.30078125 C12 33 12 33 12 36 C7.79028725 33.97099431 3.94567303 31.49892625 0 29 C-4.95 32.465 -4.95 32.465 -10 36 C-11 32 -11 32 -10 29.0625 C-8.86269122 25.57949188 -8.49684679 24.34034047 -10 21 C-12.01048469 19.25616907 -14.08665156 17.7335311 -16.28515625 16.234375 C-16.85105469 15.82703125 -17.41695313 15.4196875 -18 15 C-18 14.67 -18 14.34 -18 14 C-13.38 14 -8.76 14 -4 14 C-3.71125 12.618125 -3.4225 11.23625 -3.125 9.8125 C-2.36695066 6.3796194 -1.45231137 3.21583233 0 0 Z " fill="#F5F6F8" transform="translate(85,270)"/>
<path d="M0 0 C0.66 0 1.32 0 2 0 C3.32 4.29 4.64 8.58 6 13 C10.29 13.33 14.58 13.66 19 14 C16.14723863 16.93200474 13.34920216 19.64315404 10 22 C10.19916016 22.87011719 10.19916016 22.87011719 10.40234375 23.7578125 C11.39704001 28.15770982 12.31368332 32.53894158 13 37 C12.39671875 36.59007812 11.7934375 36.18015625 11.171875 35.7578125 C10.37265625 35.21898437 9.5734375 34.68015625 8.75 34.125 C7.96109375 33.59132812 7.1721875 33.05765625 6.359375 32.5078125 C3.78934704 30.80732794 3.78934704 30.80732794 0 29 C-3.3 31.64 -6.6 34.28 -10 37 C-11.33844502 32.98466494 -10.09207207 31.07075256 -8.59375 27.25390625 C-7.90376105 24.63467186 -7.90518597 23.47216072 -9 21 C-10.83785603 19.26675348 -10.83785603 19.26675348 -13.0625 17.8125 C-14.38746868 16.89270628 -15.70365218 15.9597108 -17 15 C-17 14.67 -17 14.34 -17 14 C-10.565 13.505 -10.565 13.505 -4 13 C-2.68 8.71 -1.36 4.42 0 0 Z " fill="#F4F6F8" transform="translate(255,125)"/>
<path d="M0 0 C2.18614424 2.18614424 2.68256535 3.53879949 3.625 6.4375 C4.01558594 7.61119141 4.01558594 7.61119141 4.4140625 8.80859375 C5 11 5 11 5 14 C9.62 14 14.24 14 19 14 C16.14723863 16.93200474 13.34920216 19.64315404 10 22 C10.144375 23.010625 10.28875 24.02125 10.4375 25.0625 C10.95833333 28.70833333 11.47916667 32.35416667 12 36 C7.97215247 33.70965533 3.96287499 31.40174242 0 29 C-0.62648438 29.5053125 -1.25296875 30.010625 -1.8984375 30.53125 C-2.71570313 31.1809375 -3.53296875 31.830625 -4.375 32.5 C-5.59316406 33.47453125 -5.59316406 33.47453125 -6.8359375 34.46875 C-9 36 -9 36 -11 36 C-10.86722656 35.40832031 -10.73445313 34.81664062 -10.59765625 34.20703125 C-10.42105469 33.41683594 -10.24445313 32.62664062 -10.0625 31.8125 C-9.88847656 31.03519531 -9.71445312 30.25789063 -9.53515625 29.45703125 C-8.99488667 26.97652348 -8.49105628 24.49067284 -8 22 C-8.721875 21.50628906 -9.44375 21.01257813 -10.1875 20.50390625 C-11.5796875 19.54291016 -11.5796875 19.54291016 -13 18.5625 C-13.928125 17.92441406 -14.85625 17.28632813 -15.8125 16.62890625 C-16.534375 16.09136719 -17.25625 15.55382812 -18 15 C-18 14.67 -18 14.34 -18 14 C-13.38 14 -8.76 14 -4 14 C-3.525625 12.246875 -3.05125 10.49375 -2.5625 8.6875 C-1.77029018 5.75976807 -0.95928532 2.87785595 0 0 Z " fill="#F6F7F9" transform="translate(426,270)"/>
<path d="M0 0 C2.18614424 2.18614424 2.68256535 3.53879949 3.625 6.4375 C4.01558594 7.61119141 4.01558594 7.61119141 4.4140625 8.80859375 C5 11 5 11 5 14 C9.62 14 14.24 14 19 14 C16.14723863 16.93200474 13.34920216 19.64315404 10 22 C10.144375 23.010625 10.28875 24.02125 10.4375 25.0625 C10.95833333 28.70833333 11.47916667 32.35416667 12 36 C7.97215247 33.70965533 3.96287499 31.40174242 0 29 C-0.62648437 29.5053125 -1.25296875 30.010625 -1.8984375 30.53125 C-2.71570313 31.1809375 -3.53296875 31.830625 -4.375 32.5 C-5.59316406 33.47453125 -5.59316406 33.47453125 -6.8359375 34.46875 C-9 36 -9 36 -11 36 C-10.86722656 35.40832031 -10.73445312 34.81664062 -10.59765625 34.20703125 C-10.42105469 33.41683594 -10.24445313 32.62664062 -10.0625 31.8125 C-9.88847656 31.03519531 -9.71445313 30.25789063 -9.53515625 29.45703125 C-8.99488667 26.97652348 -8.49105628 24.49067284 -8 22 C-8.721875 21.50628906 -9.44375 21.01257813 -10.1875 20.50390625 C-11.5796875 19.54291016 -11.5796875 19.54291016 -13 18.5625 C-13.928125 17.92441406 -14.85625 17.28632813 -15.8125 16.62890625 C-16.534375 16.09136719 -17.25625 15.55382812 -18 15 C-18 14.67 -18 14.34 -18 14 C-13.38 14 -8.76 14 -4 14 C-3.525625 12.246875 -3.05125 10.49375 -2.5625 8.6875 C-1.77029018 5.75976807 -0.95928532 2.87785595 0 0 Z " fill="#F6F7F9" transform="translate(170,270)"/>
<path d="M0 0 C0.66 0 1.32 0 2 0 C3.32 4.29 4.64 8.58 6 13 C10.29 13.33 14.58 13.66 19 14 C16.14723863 16.93200474 13.34920216 19.64315404 10 22 C10.13277344 22.59167969 10.26554687 23.18335938 10.40234375 23.79296875 C11.31005178 27.85446525 12.2091113 31.91374171 13 36 C10.15921909 34.7500564 7.96609026 33.17602101 5.5625 31.25 C2.81585254 29.18701597 2.81585254 29.18701597 -0.5625 29.375 C-3.57465841 31.38310561 -6.2339197 33.66419885 -9 36 C-9.66 36 -10.32 36 -11 36 C-10.77183594 35.25234375 -10.54367187 34.5046875 -10.30859375 33.734375 C-10.02113281 32.74953125 -9.73367188 31.7646875 -9.4375 30.75 C-9.14746094 29.77546875 -8.85742188 28.8009375 -8.55859375 27.796875 C-7.99019576 24.95091022 -7.79978577 23.61713381 -9 21 C-10.83785603 19.26675348 -10.83785603 19.26675348 -13.0625 17.8125 C-14.38746868 16.89270628 -15.70365218 15.9597108 -17 15 C-17 14.67 -17 14.34 -17 14 C-10.565 13.505 -10.565 13.505 -4 13 C-2.68 8.71 -1.36 4.42 0 0 Z " fill="#F4F5F7" transform="translate(383,234)"/>
<path d="M0 0 C0.66 0 1.32 0 2 0 C3.32 4.29 4.64 8.58 6 13 C10.29 13.33 14.58 13.66 19 14 C16.14723863 16.93200474 13.34920216 19.64315404 10 22 C10.13277344 22.59167969 10.26554687 23.18335938 10.40234375 23.79296875 C11.31005178 27.85446525 12.2091113 31.91374171 13 36 C10.15921909 34.7500564 7.96609026 33.17602101 5.5625 31.25 C2.81585254 29.18701597 2.81585254 29.18701597 -0.5625 29.375 C-3.57465841 31.38310561 -6.2339197 33.66419885 -9 36 C-9.66 36 -10.32 36 -11 36 C-10.77183594 35.25234375 -10.54367188 34.5046875 -10.30859375 33.734375 C-10.02113281 32.74953125 -9.73367187 31.7646875 -9.4375 30.75 C-9.14746094 29.77546875 -8.85742188 28.8009375 -8.55859375 27.796875 C-7.99019576 24.95091022 -7.79978577 23.61713381 -9 21 C-10.83785603 19.26675348 -10.83785603 19.26675348 -13.0625 17.8125 C-14.38746868 16.89270628 -15.70365218 15.9597108 -17 15 C-17 14.67 -17 14.34 -17 14 C-10.565 13.505 -10.565 13.505 -4 13 C-2.68 8.71 -1.36 4.42 0 0 Z " fill="#F4F5F7" transform="translate(127,234)"/>
<path d="M0 0 C2 1 2 1 2.8515625 3.1796875 C3.10679687 4.06914062 3.36203125 4.95859375 3.625 5.875 C3.88539063 6.75929687 4.14578125 7.64359375 4.4140625 8.5546875 C5 11 5 11 5 14 C9.62 14 14.24 14 19 14 C13.35475578 19.80205656 13.35475578 19.80205656 10 22 C9.34 22 8.68 22 8 22 C8.30035156 22.67546875 8.60070312 23.3509375 8.91015625 24.046875 C9.29042969 24.93890625 9.67070312 25.8309375 10.0625 26.75 C10.63677734 28.07257813 10.63677734 28.07257813 11.22265625 29.421875 C12 32 12 32 11 36 C7.7 33.69 4.4 31.38 1 29 C-0.423125 29.969375 -1.84625 30.93875 -3.3125 31.9375 C-5.94009076 33.7273082 -7.96916284 34.98972095 -11 36 C-10.86722656 35.40832031 -10.73445313 34.81664062 -10.59765625 34.20703125 C-10.42105469 33.41683594 -10.24445313 32.62664062 -10.0625 31.8125 C-9.88847656 31.03519531 -9.71445312 30.25789063 -9.53515625 29.45703125 C-8.99488667 26.97652348 -8.49105628 24.49067284 -8 22 C-8.721875 21.50628906 -9.44375 21.01257813 -10.1875 20.50390625 C-11.5796875 19.54291016 -11.5796875 19.54291016 -13 18.5625 C-13.928125 17.92441406 -14.85625 17.28632813 -15.8125 16.62890625 C-16.534375 16.09136719 -17.25625 15.55382812 -18 15 C-18 14.67 -18 14.34 -18 14 C-13.38 14 -8.76 14 -4 14 C-3.525625 12.06125 -3.05125 10.1225 -2.5625 8.125 C-1.125 2.25 -1.125 2.25 0 0 Z " fill="#F5F6F8" transform="translate(426,125)"/>
<path d="M0 0 C2 1 2 1 2.8515625 3.1796875 C3.10679687 4.06914062 3.36203125 4.95859375 3.625 5.875 C3.88539063 6.75929687 4.14578125 7.64359375 4.4140625 8.5546875 C5 11 5 11 5 14 C9.62 14 14.24 14 19 14 C13.35475578 19.80205656 13.35475578 19.80205656 10 22 C9.34 22 8.68 22 8 22 C8.30035156 22.67546875 8.60070312 23.3509375 8.91015625 24.046875 C9.29042969 24.93890625 9.67070312 25.8309375 10.0625 26.75 C10.63677734 28.07257813 10.63677734 28.07257813 11.22265625 29.421875 C12 32 12 32 11 36 C7.7 33.69 4.4 31.38 1 29 C-0.423125 29.969375 -1.84625 30.93875 -3.3125 31.9375 C-5.94009076 33.7273082 -7.96916284 34.98972095 -11 36 C-10.86722656 35.40832031 -10.73445312 34.81664062 -10.59765625 34.20703125 C-10.42105469 33.41683594 -10.24445313 32.62664062 -10.0625 31.8125 C-9.88847656 31.03519531 -9.71445313 30.25789063 -9.53515625 29.45703125 C-8.99488667 26.97652348 -8.49105628 24.49067284 -8 22 C-8.721875 21.50628906 -9.44375 21.01257813 -10.1875 20.50390625 C-11.5796875 19.54291016 -11.5796875 19.54291016 -13 18.5625 C-13.928125 17.92441406 -14.85625 17.28632813 -15.8125 16.62890625 C-16.534375 16.09136719 -17.25625 15.55382812 -18 15 C-18 14.67 -18 14.34 -18 14 C-13.38 14 -8.76 14 -4 14 C-3.525625 12.06125 -3.05125 10.1225 -2.5625 8.125 C-1.125 2.25 -1.125 2.25 0 0 Z " fill="#F5F6F8" transform="translate(170,125)"/>
<path d="M0 0 C3.60052794 3.60052794 3.86739908 9.16070514 5 14 C9.62 14 14.24 14 19 14 C15.88983545 17.28788824 12.98381075 19.83735988 9 22 C9.34224609 23.13888672 9.34224609 23.13888672 9.69140625 24.30078125 C10.12259766 25.79158203 10.12259766 25.79158203 10.5625 27.3125 C10.85253906 28.29863281 11.14257812 29.28476563 11.44140625 30.30078125 C12 33 12 33 11 36 C7.37 33.69 3.74 31.38 0 29 C-5.445 32.465 -5.445 32.465 -11 36 C-10.46148032 30.72250715 -9.22656164 26.74354436 -7 22 C-7.515625 21.773125 -8.03125 21.54625 -8.5625 21.3125 C-11.90966116 19.51018245 -15.03890492 17.38717496 -18 15 C-18 14.67 -18 14.34 -18 14 C-13.38 14 -8.76 14 -4 14 C-3.71125 12.4325 -3.4225 10.865 -3.125 9.25 C-2.49467112 5.82821466 -1.69433918 3.0469629 0 0 Z " fill="#F5F7F9" transform="translate(341,125)"/>
<path d="M0 0 C3.60052794 3.60052794 3.86739908 9.16070514 5 14 C9.62 14 14.24 14 19 14 C15.88983545 17.28788824 12.98381075 19.83735988 9 22 C9.34224609 23.13888672 9.34224609 23.13888672 9.69140625 24.30078125 C10.12259766 25.79158203 10.12259766 25.79158203 10.5625 27.3125 C10.85253906 28.29863281 11.14257812 29.28476563 11.44140625 30.30078125 C12 33 12 33 11 36 C7.37 33.69 3.74 31.38 0 29 C-5.445 32.465 -5.445 32.465 -11 36 C-10.46148032 30.72250715 -9.22656164 26.74354436 -7 22 C-7.515625 21.773125 -8.03125 21.54625 -8.5625 21.3125 C-11.90966116 19.51018245 -15.03890492 17.38717496 -18 15 C-18 14.67 -18 14.34 -18 14 C-13.38 14 -8.76 14 -4 14 C-3.71125 12.4325 -3.4225 10.865 -3.125 9.25 C-2.49467112 5.82821466 -1.69433918 3.0469629 0 0 Z " fill="#F5F7F9" transform="translate(85,125)"/>
<path d="M0 0 C2 1 2 1 2.8515625 2.92578125 C3.10679687 3.71339844 3.36203125 4.50101563 3.625 5.3125 C4.01558594 6.48232422 4.01558594 6.48232422 4.4140625 7.67578125 C5 10 5 10 5 14 C9.62 14 14.24 14 19 14 C15.88983545 17.28788824 12.98381075 19.83735988 9 22 C9.20496094 22.67546875 9.40992188 23.3509375 9.62109375 24.046875 C9.89050781 24.93890625 10.15992188 25.8309375 10.4375 26.75 C10.70433594 27.63171875 10.97117187 28.5134375 11.24609375 29.421875 C11.88468494 31.60565835 12.46775833 33.78835498 13 36 C8.40693504 34.5140084 5.56430755 32.14985318 2 29 C-2.67105792 30.55701931 -6.08705685 33.08447373 -10 36 C-11.21065165 32.36804504 -10.62784815 30.93468371 -9.5625 27.3125 C-9.27503906 26.31863281 -8.98757813 25.32476562 -8.69140625 24.30078125 C-8.46324219 23.54152344 -8.23507812 22.78226562 -8 22 C-8.6496875 21.50628906 -9.299375 21.01257813 -9.96875 20.50390625 C-10.8040625 19.86324219 -11.639375 19.22257812 -12.5 18.5625 C-13.3353125 17.92441406 -14.170625 17.28632813 -15.03125 16.62890625 C-15.6809375 16.09136719 -16.330625 15.55382812 -17 15 C-17 14.67 -17 14.34 -17 14 C-12.71 14 -8.42 14 -4 14 C-3.71125 12.618125 -3.4225 11.23625 -3.125 9.8125 C-2.36695066 6.3796194 -1.45231137 3.21583233 0 0 Z " fill="#F4F6F8" transform="translate(298,234)"/>
<path d="M0 0 C2 1 2 1 2.8515625 2.92578125 C3.10679688 3.71339844 3.36203125 4.50101563 3.625 5.3125 C4.01558594 6.48232422 4.01558594 6.48232422 4.4140625 7.67578125 C5 10 5 10 5 14 C9.62 14 14.24 14 19 14 C15.88983545 17.28788824 12.98381075 19.83735988 9 22 C9.20496094 22.67546875 9.40992187 23.3509375 9.62109375 24.046875 C9.89050781 24.93890625 10.15992187 25.8309375 10.4375 26.75 C10.70433594 27.63171875 10.97117187 28.5134375 11.24609375 29.421875 C11.88468494 31.60565835 12.46775833 33.78835498 13 36 C8.40693504 34.5140084 5.56430755 32.14985318 2 29 C-2.67105792 30.55701931 -6.08705685 33.08447373 -10 36 C-11.21065165 32.36804504 -10.62784815 30.93468371 -9.5625 27.3125 C-9.27503906 26.31863281 -8.98757812 25.32476562 -8.69140625 24.30078125 C-8.46324219 23.54152344 -8.23507813 22.78226562 -8 22 C-8.6496875 21.50628906 -9.299375 21.01257813 -9.96875 20.50390625 C-10.8040625 19.86324219 -11.639375 19.22257812 -12.5 18.5625 C-13.3353125 17.92441406 -14.170625 17.28632813 -15.03125 16.62890625 C-15.6809375 16.09136719 -16.330625 15.55382812 -17 15 C-17 14.67 -17 14.34 -17 14 C-12.71 14 -8.42 14 -4 14 C-3.71125 12.618125 -3.4225 11.23625 -3.125 9.8125 C-2.36695066 6.3796194 -1.45231137 3.21583233 0 0 Z " fill="#F4F6F8" transform="translate(42,234)"/>
<path d="M0 0 C2.18614424 2.18614424 2.68256535 3.53879949 3.625 6.4375 C4.01558594 7.61119141 4.01558594 7.61119141 4.4140625 8.80859375 C5 11 5 11 5 14 C9.29 14 13.58 14 18 14 C15.14021487 16.93922361 12.31192213 19.58682597 9 22 C9.34224609 23.13888672 9.34224609 23.13888672 9.69140625 24.30078125 C10.12259766 25.79158203 10.12259766 25.79158203 10.5625 27.3125 C10.85253906 28.29863281 11.14257812 29.28476562 11.44140625 30.30078125 C12 33 12 33 11 36 C7.7 33.69 4.4 31.38 1 29 C-1.89511173 30.44755587 -4.53127396 31.90314017 -7.25 33.625 C-8.30960937 34.29402344 -8.30960937 34.29402344 -9.390625 34.9765625 C-9.92171875 35.31429687 -10.4528125 35.65203125 -11 36 C-10.40380045 31.13103697 -9.43023178 26.67209049 -8 22 C-8.721875 21.50628906 -9.44375 21.01257813 -10.1875 20.50390625 C-11.5796875 19.54291016 -11.5796875 19.54291016 -13 18.5625 C-13.928125 17.92441406 -14.85625 17.28632813 -15.8125 16.62890625 C-16.534375 16.09136719 -17.25625 15.55382812 -18 15 C-18 14.67 -18 14.34 -18 14 C-13.38 14 -8.76 14 -4 14 C-3.896875 12.989375 -3.79375 11.97875 -3.6875 10.9375 C-2.96295233 6.78781792 -1.77730734 3.78643737 0 0 Z " fill="#F5F6F8" transform="translate(469,234)"/>
<path d="M0 0 C2.18614424 2.18614424 2.68256535 3.53879949 3.625 6.4375 C4.01558594 7.61119141 4.01558594 7.61119141 4.4140625 8.80859375 C5 11 5 11 5 14 C9.29 14 13.58 14 18 14 C15.14021487 16.93922361 12.31192213 19.58682597 9 22 C9.34224609 23.13888672 9.34224609 23.13888672 9.69140625 24.30078125 C10.12259766 25.79158203 10.12259766 25.79158203 10.5625 27.3125 C10.85253906 28.29863281 11.14257812 29.28476562 11.44140625 30.30078125 C12 33 12 33 11 36 C7.7 33.69 4.4 31.38 1 29 C-1.89511173 30.44755587 -4.53127396 31.90314017 -7.25 33.625 C-8.30960938 34.29402344 -8.30960938 34.29402344 -9.390625 34.9765625 C-9.92171875 35.31429687 -10.4528125 35.65203125 -11 36 C-10.40380045 31.13103697 -9.43023178 26.67209049 -8 22 C-8.721875 21.50628906 -9.44375 21.01257813 -10.1875 20.50390625 C-11.5796875 19.54291016 -11.5796875 19.54291016 -13 18.5625 C-13.928125 17.92441406 -14.85625 17.28632813 -15.8125 16.62890625 C-16.534375 16.09136719 -17.25625 15.55382812 -18 15 C-18 14.67 -18 14.34 -18 14 C-13.38 14 -8.76 14 -4 14 C-3.896875 12.989375 -3.79375 11.97875 -3.6875 10.9375 C-2.96295233 6.78781792 -1.77730734 3.78643737 0 0 Z " fill="#F5F6F8" transform="translate(213,234)"/>
</svg>
